<?xml version="1.0" encoding="UTF-8"?>
<svg id="Layer_2" data-name="Layer 2" xmlns="http://www.w3.org/2000/svg" xmlns:xlink="http://www.w3.org/1999/xlink" viewBox="0 0 47.37 47.37">
  <defs>
    <style>
      .cls-1 {
        fill: url(#linear-gradient-2);
      }

      .cls-2 {
        fill: url(#linear-gradient);
        opacity: 0;
      }
    </style>
    <linearGradient id="linear-gradient" x1="25.93" y1="-1.51" x2="22" y2="42.54" gradientUnits="userSpaceOnUse">
      <stop offset="0" stop-color="#5be1fd"/>
      <stop offset="1" stop-color="#27e"/>
    </linearGradient>
    <linearGradient id="linear-gradient-2" x1="9.13" y1="-1288.06" x2="38.24" y2="-1288.06" gradientTransform="translate(0 -1264.37) scale(1 -1)" xlink:href="#linear-gradient"/>
  </defs>
  <g id="Layer_1-2" data-name="Layer 1">
    <g>
      <rect class="cls-2" width="47.37" height="47.37"/>
      <path class="cls-1" d="M37.88,18.83l-3.48-3.48.62-.67c.28-.3.25-.77-.06-1.07l-1.33-1.33c-.31-.31-.78-.33-1.08-.05l-.66.62-3.36-3.36c-.49-.49-1.28-.49-1.77,0l-4.79,4.79c-.49.49-.49,1.28,0,1.77l3.19,3.19-15.53,14.73c-.32.3-.5.72-.5,1.18,0,.54.22,1.08.63,1.49l.97.97c.41.41.95.64,1.49.63.46,0,.88-.19,1.18-.51l14.64-15.6,3.27,3.27c.49.49,1.28.49,1.77,0l4.79-4.79c.49-.49.49-1.28,0-1.77h0ZM33.07,12.81s.02,0,.02.02l1.33,1.33s0,.02.02.03l-.59.62-1.41-1.41.62-.59h0ZM12.84,37.2c-.2.21-.45.26-.63.26-.33,0-.67-.14-.93-.4l-.97-.97c-.26-.26-.41-.6-.4-.93,0-.18.05-.43.26-.63l15.54-14.74,1.79,1.79-14.66,15.62h0ZM37.34,20.06l-4.79,4.79c-.19.19-.49.19-.68,0l-9.34-9.34c-.19-.19-.19-.49,0-.68l4.79-4.79c.19-.19.49-.19.68,0l9.34,9.34c.19.19.19.49,0,.68Z"/>
    </g>
  </g>
</svg>