<?xml version="1.0" encoding="UTF-8"?>
<svg id="Layer_2" data-name="Layer 2" xmlns="http://www.w3.org/2000/svg" xmlns:xlink="http://www.w3.org/1999/xlink" viewBox="0 0 47.37 47.37">
  <defs>
    <style>
      .cls-1 {
        fill: url(#linear-gradient-2);
      }

      .cls-2 {
        fill: url(#linear-gradient);
        opacity: 0;
      }
    </style>
    <linearGradient id="linear-gradient" x1="25.93" y1="-1.51" x2="22" y2="42.54" gradientUnits="userSpaceOnUse">
      <stop offset="0" stop-color="#5be1fd"/>
      <stop offset="1" stop-color="#27e"/>
    </linearGradient>
    <linearGradient id="linear-gradient-2" x1="23.74" y1="-1305.78" x2="23.59" y2="-1280.73" gradientTransform="translate(0 -1266.99) scale(1 -1)" xlink:href="#linear-gradient"/>
  </defs>
  <g id="Layer_1-2" data-name="Layer 1">
    <g>
      <rect class="cls-2" width="47.37" height="47.37"/>
      <path class="cls-1" d="M30.65,16.72c.4,3.63-2.55,5.29-2.55,5.29.13-12.25-8.31-12.09-8.31-12.09,1.74,1.51,3.75,6.95-1.34,10.43-.07.05-.15.1-.22.15-6.55,4.65-6.02,16.61,1.08,18.52-1.62-2.6-1.46-6.5,1.37-8.51.04-.03.08-.06.12-.09,2.87-1.96,1.74-5.03.76-5.89,0,0,4.77-.09,4.69,6.82,0,0,1.66-.94,1.44-2.99,0,0,1.78,3.68,1.74,6.83-.02,1.34-.39,2.58-1.01,3.61,3.13-1.91,5.26-4.74,5.31-9.06.08-5.58-3.08-13.03-3.08-13.03h0Z"/>
    </g>
  </g>
</svg>