<?xml version="1.0" encoding="UTF-8"?>
<svg id="Layer_2" data-name="Layer 2" xmlns="http://www.w3.org/2000/svg" xmlns:xlink="http://www.w3.org/1999/xlink" viewBox="0 0 236.83 74.31">
  <defs>
    <style>
      .cls-1 {
        fill: url(#linear-gradient-2);
      }

      .cls-2 {
        fill: #fff;
      }

      .cls-3 {
        fill: url(#linear-gradient);
      }

      .cls-4 {
        fill: none;
        stroke: url(#linear-gradient-3);
        stroke-miterlimit: 10;
        stroke-width: .65px;
      }
    </style>
    <linearGradient id="linear-gradient" x1="92.09" y1="1365.23" x2="129.13" y2="1365.23" gradientTransform="translate(0 1391.56) scale(1 -1)" gradientUnits="userSpaceOnUse">
      <stop offset="0" stop-color="#5be1fd"/>
      <stop offset="1" stop-color="#27e"/>
    </linearGradient>
    <linearGradient id="linear-gradient-2" x1="0" y1="1368.01" x2="38.8" y2="1368.01" gradientTransform="translate(0 1391.56) scale(1 -1)" gradientUnits="userSpaceOnUse">
      <stop offset="0" stop-color="#27e"/>
      <stop offset="1" stop-color="#5be1fd"/>
    </linearGradient>
    <linearGradient id="linear-gradient-3" x1="1.54" y1="1339.48" x2="236.82" y2="1339.48" xlink:href="#linear-gradient"/>
  </defs>
  <g id="Layer_1-2" data-name="Layer 1">
    <g>
      <path class="cls-2" d="M67.82,28.92v15.55h-1.54l-2.62-8.72c-1.74,6.16-6.62,8.88-11.29,8.88s-7.18-2.51-7.18-5.95c0-5.49,6.16-8.72,18.01-9.49v-1.28c0-4.92-1.9-8.05-6.98-8.05s-8.11,3.28-8.11,9.08h-1.8c0-6.98,4.1-10.98,10.98-10.98s10.52,3.9,10.52,10.98v-.02ZM63.2,30.67c-8.47.56-13.39,2.77-13.39,7.29,0,2.51,1.64,4.1,4.72,4.1,4.51,0,8.67-4.26,8.67-11.39h0Z"/>
      <path class="cls-2" d="M88.34,17.94v2.15c-7.08-.15-9.85,5.44-9.85,12.62v11.39h-4.62v-25.65h4.62v6.82c1.59-4.26,4.87-7.34,9.85-7.34h0Z"/>
      <path class="cls-3" d="M129.13,44.11h-4.87V12.09l-14.57,32.38h-.77l-14.78-32.53v32.17h-2.05V8.19h5.75l13.08,28.78,12.93-28.78h5.28v35.92Z"/>
      <path class="cls-2" d="M156.93,28.92v15.55h-1.54l-2.62-8.72c-1.74,6.16-6.62,8.88-11.29,8.88s-7.18-2.51-7.18-5.95c0-5.49,6.16-8.72,18.01-9.49v-1.28c0-4.92-1.9-8.05-6.98-8.05s-8.11,3.28-8.11,9.08h-1.8c0-6.98,4.1-10.98,10.98-10.98s10.52,3.9,10.52,10.98v-.02ZM152.32,30.67c-8.47.56-13.39,2.77-13.39,7.29,0,2.51,1.64,4.1,4.72,4.1,4.51,0,8.67-4.26,8.67-11.39h0Z"/>
      <path class="cls-2" d="M180.28,35.13c0,7.03-3.64,9.44-7.8,9.44s-7.75-2.46-7.75-8.41v-16.01h-4.77v-1.69h4.77l3.13-6.67h1.49v6.67h10.42v1.69h-10.42v16.98c0,3.49,1.54,5.28,4.36,5.28,2.62,0,4.62-1.9,4.67-7.29h1.9Z"/>
      <path class="cls-2" d="M196.75,44.62c-7.7,0-13.85-5.08-13.85-13.39s6.16-13.29,13.6-13.29c6.21,0,11.13,3.44,11.7,10.62h-1.8c-.56-5.85-3.95-8.93-8.88-8.93-6,0-9.75,4.36-9.75,11.39s3.9,11.49,10.11,11.49c5.23,0,8.88-3.49,8.88-8.67h1.74c0,6.93-5.28,10.78-11.75,10.78Z"/>
      <path class="cls-2" d="M236.82,27.43v16.68h-4.62v-16.57c0-4.62-2.57-7.13-6.31-7.13-4.36,0-7.54,3.64-7.95,9.49v14.21h-4.62V8.19h4.62v17.29c1.38-4.62,4.67-7.54,9.65-7.54,5.44,0,9.24,3.59,9.24,9.49h-.01Z"/>
      <g>
        <path class="cls-2" d="M3.77,58.75h7.21v12.95h-1.2v-11.91h-4.82v9.29c0,1.84-1.17,2.62-2.3,2.62h-.77v-1.05h.77c.79,0,1.1-.65,1.1-1.53v-10.38h.01Z"/>
        <path class="cls-2" d="M17.66,58.75v12.95h-1.2v-12.95h1.2Z"/>
        <path class="cls-2" d="M31.01,71.7h-1.34l-4.07-7.57-.55.48c-.58.5-.74,1.03-.74,1.76v5.32h-1.2v-5.32c0-.88.26-1.7,1.08-2.37l.93-.8-2.42-4.46h1.32l3.55,6.58.86-.73c.53-.46.86-.92.86-1.78v-4.07h1.2v4.07c0,.84-.19,1.51-1.37,2.54l-1.05.9,2.95,5.45h-.01Z"/>
        <path class="cls-2" d="M35.58,59.8v-1.05h4.72c1.39,0,2.71.78,2.71,2.56,0,1.17-.36,2.47-.53,3.16l-1.7,7.23h-1.22l1.75-7.4c.19-.86.5-1.97.5-2.98s-.65-1.53-1.73-1.53h-4.51.01ZM37.07,62.65v11.66h-1.2v-11.66s1.2,0,1.2,0Z"/>
        <path class="cls-2" d="M55.42,67.95c0,2.49-1.68,3.96-3.67,3.96h-.05c-2.08,0-3.71-1.45-3.71-3.96v-9.2h4.55c1.94,0,2.88,1.24,2.88,2.91,0,0,0,6.29,0,6.29ZM54.22,61.66c0-1.01-.48-1.87-1.68-1.87h-3.35v8.15c0,2.2,1.29,2.91,2.52,2.91h.05c1.2,0,2.47-.73,2.47-2.91v-6.29h-.01Z"/>
        <path class="cls-2" d="M66.66,58.75h1.2v8.05c0,2.03-.58,3.48-2.54,4.15l-5.22,1.8v-1.09l2.8-.99-2.47-11.93h1.27l2.3,11.55.96-.34c1.13-.4,1.7-.94,1.7-3.12v-8.09h0Z"/>
        <path class="cls-2" d="M76.5,71.7h-1.2l3.09-11.91h-5.7v-3.58h1.2v2.54h6.06s-3.45,12.95-3.45,12.95Z"/>
        <path class="cls-2" d="M99.38,71.7h-7.28v-12.95h7.28v12.95ZM98.18,59.8h-4.89v10.86h4.89v-10.86Z"/>
        <path class="cls-2" d="M105.92,58.75v6.81h-1.2v-6.81h1.2Z"/>
        <path class="cls-2" d="M110.83,58.75h3.16c2.28,0,3.09,1.36,3.09,3.29v9.66h-1.2v-9.64c0-1.59-.5-2.26-2.01-2.26h-3.04s0-1.05,0-1.05Z"/>
        <path class="cls-2" d="M128.68,62.06c0-1.59-.5-2.26-2.01-2.26h-3v11.91h-1.2v-12.95h4.31c2.28,0,3.09,1.36,3.09,3.29v9.66h-1.2v-9.64h.01Z"/>
        <path class="cls-2" d="M136.44,58.75v12.95h-1.2v-12.95h1.2Z"/>
        <path class="cls-2" d="M149.26,67.95c0,2.49-1.68,3.96-3.67,3.96h-.05c-2.09,0-3.71-1.45-3.71-3.96v-9.2h4.55c1.94,0,2.88,1.24,2.88,2.91,0,0,0,6.29,0,6.29ZM148.06,61.66c0-1.01-.48-1.87-1.68-1.87h-3.35v8.15c0,2.2,1.29,2.91,2.52,2.91h.05c1.2,0,2.47-.73,2.47-2.91v-6.29h-.01Z"/>
        <path class="cls-2" d="M162.86,58.75v15.55h-1.15v-15.55h1.15Z"/>
        <path class="cls-2" d="M169.52,58.75v6.81h-1.2v-6.81h1.2Z"/>
        <path class="cls-2" d="M180.57,70.66h1.49v1.05h-7.5v-1.05h4.82v-10.86h-4.82v-1.05h6.01v11.91Z"/>
        <path class="cls-2" d="M193.41,58.75h3.16c2.28,0,3.09,1.36,3.09,3.29v9.66h-1.2v-9.64c0-1.59-.5-2.26-2.01-2.26h-3.04s0-1.05,0-1.05Z"/>
        <path class="cls-2" d="M206.23,58.75v12.95h-1.2v-12.95h1.2Z"/>
        <path class="cls-2" d="M217.32,70.66h1.49v1.05h-7.5v-1.05h4.82v-10.86h-4.82v-1.05h6.01v11.91Z"/>
        <path class="cls-2" d="M223.95,58.75v6.81h-1.2v-6.81h1.2Z"/>
        <path class="cls-2" d="M235.62,62.06c0-1.59-.5-2.26-2.01-2.26h-3v11.91h-1.2v-12.95h4.31c2.28,0,3.09,1.36,3.09,3.29v9.66h-1.2v-9.64h.01Z"/>
      </g>
      <path class="cls-1" d="M23.71,14.27h4.07c2.59,0,7.52,2.9,9.32,4.76.14.15,1.24,1.46,1.09,1.59-2.75-.22-5.94.3-8.63,0-2.83-.31-3.89-1.34-7.24-.5-14.22,3.56-7.63,26.34,7,20.49,1.26-.5,1.25-.94,2.63-.94h6.85c-1.42,3.01-5.16,5.46-8.29,6.49C13.88,51.61,8.18,32.13.33,22.09c-.96-1.41.32-3.59,1.88-3.83,3.1-.48,4.41,3.56,6.43,5.15-.33-.67-.02-1.12,0-1.69.15-4.63.03-9.73.39-14.29.16-2.02,1.22-4.36,3.66-4.06.99.12,2.1,1.76,2.1,2.68v9.62c.72-.74,1.31-1.72,1.87-2.59,1.8-2.81,6-10.75,8.27-12.37,1.36-.97,2.7-.98,3.96.17,2.63,2.39-1.16,6.5-2.47,8.66-.95,1.55-1.78,3.17-2.7,4.75v-.02Z"/>
      <path class="cls-2" d="M41.27,26.97l.26.33c.6,3.61.22,7.43-1.55,10.68l-12.19.09c-.16,2.08-2.11,2.04-3.77,1.79s-1.08-1.96-1.35-3.02c-.11-.42-.63-.8-.73-1.45-.18-1.16-.1-4.39.24-5.49.37-1.17,1.29-2.01,2.12-2.84v-.29c-3.36-1.35.59-4,2.09-1.79.99-.9,2.38-2.61,3.77-2.78,2.81-.34,6.25.26,9.13,0,.5-.04,1.25,1.82,1.09,1.98-.49-.05-.74-.34-1.28-.4-1.62-.19-6.94-.21-8.49.05-1.44.24-2.72,2.13-3.72,3.13h14.39-.01ZM27.88,31.93c.47-.68-3.51-3.69-4.38-1.7-1.11,2.52,2.96,2.32,4.38,1.7ZM40.58,31.54h-11.11c.05,1.29.55,2.07,1.88,2.19s6.54.21,7.71-.05c1.01-.23,1.29-1.3,1.53-2.14h-.01ZM28.47,36.3c-.6-.59-1.18-1.95-2.08-2-.65-.03-1.53.41-2.28.22-.3.75.62,1.79,1.29,1.79h3.08,0ZM39.98,35.11h-9.62s-.22-.3-.3-.2c-.15.94.48,1.26,1.31,1.37,1.52.21,5.35.17,6.94.03.75-.07,1.54-.34,1.68-1.2h-.01Z"/>
      <line class="cls-4" x1="1.54" y1="52.08" x2="236.82" y2="52.08"/>
    </g>
  </g>
</svg>