<?xml version="1.0" encoding="UTF-8"?>
<svg id="Layer_2" data-name="Layer 2" xmlns="http://www.w3.org/2000/svg" xmlns:xlink="http://www.w3.org/1999/xlink" viewBox="0 0 47.37 47.37">
  <defs>
    <style>
      .cls-1 {
        fill: url(#linear-gradient-2);
      }

      .cls-2 {
        fill: url(#linear-gradient-3);
      }

      .cls-3 {
        fill: url(#linear-gradient-4);
        opacity: 0;
      }

      .cls-4 {
        fill: url(#linear-gradient);
      }
    </style>
    <linearGradient id="linear-gradient" x1="10.78" y1="-1297.42" x2="36.59" y2="-1297.42" gradientTransform="translate(0 -1270.62) scale(1 -1)" gradientUnits="userSpaceOnUse">
      <stop offset="0" stop-color="#5be1fd"/>
      <stop offset="1" stop-color="#27e"/>
    </linearGradient>
    <linearGradient id="linear-gradient-2" x1="18.53" y1="-1294.31" x2="35.05" y2="-1294.31" xlink:href="#linear-gradient"/>
    <linearGradient id="linear-gradient-3" x1="19.97" y1="-1291.17" x2="28.59" y2="-1291.17" xlink:href="#linear-gradient"/>
    <linearGradient id="linear-gradient-4" x1="25.93" y1="-1.51" x2="22" y2="42.54" gradientTransform="matrix(1,0,0,1,0,0)" xlink:href="#linear-gradient"/>
  </defs>
  <g id="Layer_1-2" data-name="Layer 1">
    <g>
      <path class="cls-4" d="M35.82,19.88c-.49-1.17-1.2-2.21-2.1-3.11-.9-.9-1.95-1.61-3.11-2.1-1.21-.51-2.49-.77-3.81-.77s-2.61.26-3.81.77c-1.17.49-2.21,1.2-3.11,2.1-.9.9-1.61,1.95-2.1,3.11-.51,1.21-.77,2.49-.77,3.81s.26,2.61.77,3.81c.29.69.66,1.34,1.09,1.94l-.87.87c-.26-.12-.57-.08-.79.13l-5.84,5.84c-.78.78-.78,2.05,0,2.83.38.38.88.59,1.42.59s1.04-.21,1.42-.59l5.84-5.84c.21-.21.26-.53.13-.79l.87-.87c.6.44,1.25.8,1.94,1.09,1.21.51,2.49.77,3.81.77s2.61-.26,3.81-.77c1.17-.49,2.21-1.2,3.11-2.1.9-.9,1.61-1.95,2.1-3.11.51-1.21.77-2.49.77-3.81s-.26-2.61-.77-3.81h0ZM19.65,32.9l-5.84,5.84c-.28.28-.64.43-1.03.43s-.76-.15-1.03-.43c-.57-.57-.57-1.49,0-2.06l5.84-5.84s.07-.04.1-.04.07.01.1.04l.03.03h0l1.8,1.8h0l.03.03c.06.06.06.15,0,.21h0ZM19.81,32.08l-1.41-1.41.79-.79c.21.26.43.51.67.74.24.24.49.46.74.67l-.79.79ZM33.34,30.23c-1.75,1.75-4.07,2.71-6.54,2.71-2.05,0-4-.66-5.6-1.89,0,0-.02-.01-.03-.02-.32-.25-.63-.51-.92-.8s-.56-.6-.8-.92c0,0-.01-.02-.02-.03-1.22-1.6-1.89-3.55-1.89-5.6,0-2.47.96-4.8,2.71-6.54s4.07-2.71,6.54-2.71,4.8.96,6.54,2.71c1.75,1.75,2.71,4.07,2.71,6.54s-.96,4.8-2.71,6.54h.01Z"/>
      <path class="cls-1" d="M32.63,17.85c-1.56-1.56-3.63-2.42-5.84-2.42s-4.28.86-5.84,2.42-2.42,3.63-2.42,5.84.86,4.28,2.42,5.84c1.56,1.56,3.63,2.42,5.84,2.42s4.28-.86,5.84-2.42,2.42-3.63,2.42-5.84-.86-4.28-2.42-5.84ZM32.24,29.14c-1.46,1.46-3.39,2.26-5.45,2.26s-4-.8-5.45-2.26c-1.46-1.46-2.26-3.39-2.26-5.45s.8-4,2.26-5.45,3.39-2.26,5.45-2.26,4,.8,5.45,2.26,2.26,3.39,2.26,5.45-.8,4-2.26,5.45Z"/>
      <path class="cls-2" d="M27.22,16.88c-1.58-.1-3.15.36-4.44,1.29-1.3.95-2.23,2.33-2.61,3.89-.11.46-.18.94-.19,1.41-.01.36.23.67.58.75.06.01.11.02.17.02.3,0,.56-.17.68-.46.36-.85.87-1.59,1.52-2.21,1.2-1.14,2.69-1.77,4.18-1.77h.02c.79,0,1.43-.61,1.46-1.4v-.02c.01-.38-.12-.75-.38-1.03s-.61-.45-.99-.48h0ZM28.04,18.37v.02h0c-.02.49-.42.87-.91.87h-.02c-1.63,0-3.25.68-4.55,1.92-.71.67-1.26,1.48-1.65,2.4-.06.14-.19.13-.23.12-.04,0-.16-.05-.16-.2.01-.43.07-.87.18-1.3.35-1.44,1.21-2.71,2.4-3.58,1.08-.78,2.37-1.2,3.69-1.2.13,0,.26,0,.39.01.5.03.88.45.86.94h0Z"/>
      <rect class="cls-3" width="47.37" height="47.37"/>
    </g>
  </g>
</svg>