<?xml version="1.0" encoding="UTF-8"?>
<svg id="Layer_1" xmlns="http://www.w3.org/2000/svg" version="1.1" xmlns:xlink="http://www.w3.org/1999/xlink" viewBox="0 0 1363.07 505.64">
  <!-- Generator: Adobe Illustrator 29.7.1, SVG Export Plug-In . SVG Version: 2.1.1 Build 8)  -->
  <defs>
    <style>
      .st0 {
        fill: none;
        stroke: url(#linear-gradient2);
        stroke-miterlimit: 10;
        stroke-width: 3.45px;
      }

      .st1 {
        fill: #fff;
      }

      .st2 {
        fill: url(#linear-gradient1);
      }

      .st3 {
        fill: url(#linear-gradient);
      }
    </style>
    <linearGradient id="linear-gradient" x1="542.57" y1="184.93" x2="738.83" y2="184.93" gradientUnits="userSpaceOnUse">
      <stop offset="0" stop-color="#5be1fd"/>
      <stop offset="1" stop-color="#27e"/>
    </linearGradient>
    <linearGradient id="linear-gradient1" x1="54.66" y1="170.19" x2="260.23" y2="170.19" gradientUnits="userSpaceOnUse">
      <stop offset="0" stop-color="#27e"/>
      <stop offset="1" stop-color="#5be1fd"/>
    </linearGradient>
    <linearGradient id="linear-gradient2" x1="62.88" y1="321.33" x2="1309.38" y2="321.33" xlink:href="#linear-gradient"/>
  </defs>
  <rect width="1363.07" height="505.64"/>
  <path class="st1" d="M414.01,198.66v82.36h-8.15l-13.86-46.22c-9.24,32.63-35.07,47.03-59.8,47.03s-38.06-13.32-38.06-31.53c0-29.09,32.62-46.21,95.41-50.29v-6.8c0-26.09-10.06-42.67-36.97-42.67s-42.95,17.4-42.95,48.12h-9.51c0-36.97,21.74-58.17,58.17-58.17s55.72,20.66,55.72,58.17ZM389.54,207.9c-44.85,2.99-70.95,14.68-70.95,38.6,0,13.32,8.7,21.75,25.01,21.75,23.92,0,45.94-22.56,45.94-60.35Z"/>
  <path class="st1" d="M522.73,140.48v11.42c-37.51-.81-52.19,28.81-52.19,66.87v60.35h-24.46v-135.92h24.46v36.15c8.43-22.56,25.83-38.87,52.19-38.87Z"/>
  <path class="st3" d="M738.83,279.12h-25.82V109.5l-77.2,171.53h-4.08l-78.29-172.34v170.43h-10.87V88.83h30.45l69.32,152.5,68.5-152.5h28v190.28Z"/>
  <path class="st1" d="M886.16,198.66v82.36h-8.16l-13.87-46.22c-9.24,32.63-35.06,47.03-59.8,47.03s-38.06-13.32-38.06-31.53c0-29.09,32.62-46.21,95.41-50.29v-6.8c0-26.09-10.06-42.67-36.97-42.67s-42.95,17.4-42.95,48.12h-9.51c0-36.97,21.74-58.17,58.17-58.17s55.73,20.66,55.73,58.17ZM861.69,207.9c-44.85,2.99-70.95,14.68-70.95,38.6,0,13.32,8.7,21.75,25.01,21.75,23.92,0,45.94-22.56,45.94-60.35Z"/>
  <path class="st1" d="M1009.83,231.54c0,37.24-19.3,50.02-41.31,50.02s-41.04-13.05-41.04-44.58v-84.81h-25.28v-8.97h25.28l16.58-35.33h7.89v35.33h55.18v8.97h-55.18v89.98c0,18.49,8.16,28,23.1,28,13.87,0,24.47-10.06,24.74-38.6h10.06Z"/>
  <path class="st1" d="M1097.08,281.84c-40.77,0-73.39-26.91-73.39-70.95s32.62-70.4,72.03-70.4c32.89,0,58.99,18.21,61.98,56.27h-9.52c-2.99-30.99-20.93-47.29-47.03-47.29-31.8,0-51.65,23.1-51.65,60.34s20.66,60.89,53.54,60.89c27.73,0,47.03-18.49,47.03-45.94h9.24c0,36.7-28,57.09-62.25,57.09Z"/>
  <path class="st1" d="M1309.38,190.77v88.35h-24.46v-87.8c0-24.46-13.59-37.78-33.44-37.78-23.1,0-39.95,19.3-42.13,50.29v75.3h-24.47V88.83h24.47v91.61c7.33-24.47,24.73-39.96,51.1-39.96,28.81,0,48.93,19.03,48.93,50.29Z"/>
  <g>
    <path class="st1" d="M74.69,356.67h38.21v68.63h-6.35v-63.08h-25.52v49.2c0,9.77-6.22,13.88-12.19,13.88h-4.06v-5.55h4.06c4.19,0,5.84-3.44,5.84-8.11v-54.97Z"/>
    <path class="st1" d="M148.31,356.67v68.63h-6.35v-68.63h6.35Z"/>
    <path class="st1" d="M219.01,425.31h-7.11l-21.58-40.09-2.92,2.55c-3.05,2.66-3.94,5.44-3.94,9.33v28.21h-6.35v-28.21c0-4.67,1.4-9,5.71-12.55l4.95-4.22-12.82-23.66h6.98l18.79,34.87,4.57-3.89c2.79-2.44,4.57-4.89,4.57-9.44v-21.54h6.35v21.54c0,4.44-1.02,8-7.24,13.44l-5.59,4.78,15.61,28.87Z"/>
    <path class="st1" d="M243.24,362.23v-5.55h25.01c7.36,0,14.35,4.11,14.35,13.55,0,6.22-1.9,13.1-2.79,16.77l-9.01,38.32h-6.47l9.27-39.2c1.02-4.55,2.67-10.44,2.67-15.77s-3.43-8.11-9.14-8.11h-23.87ZM251.11,377.33v61.75h-6.35v-61.75h6.35Z"/>
    <path class="st1" d="M348.34,405.43c0,13.22-8.89,20.99-19.42,20.99h-.25c-11.04,0-19.68-7.66-19.68-20.99v-48.75h24.12c10.28,0,15.23,6.55,15.23,15.43v33.32ZM342,372.11c0-5.33-2.54-9.88-8.89-9.88h-17.77v43.2c0,11.67,6.85,15.44,13.33,15.44h.25c6.35,0,13.08-3.89,13.08-15.44v-33.32Z"/>
    <path class="st1" d="M407.86,356.67h6.35v42.65c0,10.77-3.05,18.44-13.46,21.99l-27.67,9.55v-5.78l14.85-5.22-13.08-63.19h6.73l12.19,61.19,5.08-1.78c5.97-2.11,9.01-5,9.01-16.55v-42.87Z"/>
    <path class="st1" d="M460.03,425.31h-6.35l16.38-63.08h-30.21v-18.99h6.35v13.44h32.12l-18.28,68.63Z"/>
    <path class="st1" d="M581.24,425.31h-38.59v-68.63h38.59v68.63ZM574.89,362.23h-25.9v57.53h25.9v-57.53Z"/>
    <path class="st1" d="M615.88,356.67v36.09h-6.35v-36.09h6.35Z"/>
    <path class="st1" d="M641.9,356.67h16.76c12.06,0,16.38,7.22,16.38,17.44v51.2h-6.35v-51.09c0-8.44-2.67-11.99-10.66-11.99h-16.12v-5.55Z"/>
    <path class="st1" d="M736.46,374.22c0-8.44-2.67-11.99-10.67-11.99h-15.87v63.08h-6.35v-68.63h22.85c12.06,0,16.38,7.22,16.38,17.44v51.2h-6.35v-51.09Z"/>
    <path class="st1" d="M777.58,356.67v68.63h-6.35v-68.63h6.35Z"/>
    <path class="st1" d="M845.49,405.43c0,13.22-8.89,20.99-19.42,20.99h-.25c-11.05,0-19.68-7.66-19.68-20.99v-48.75h24.12c10.29,0,15.24,6.55,15.24,15.43v33.32ZM839.14,372.11c0-5.33-2.54-9.88-8.89-9.88h-17.77v43.2c0,11.67,6.85,15.44,13.33,15.44h.25c6.35,0,13.07-3.89,13.07-15.44v-33.32Z"/>
    <path class="st1" d="M917.57,356.67v82.41h-6.1v-82.41h6.1Z"/>
    <path class="st1" d="M952.86,356.67v36.09h-6.35v-36.09h6.35Z"/>
    <path class="st1" d="M1011.37,419.76h7.87v5.55h-39.73v-5.55h25.52v-57.53h-25.52v-5.55h31.86v63.08Z"/>
    <path class="st1" d="M1079.4,356.67h16.76c12.06,0,16.38,7.22,16.38,17.44v51.2h-6.35v-51.09c0-8.44-2.66-11.99-10.66-11.99h-16.12v-5.55Z"/>
    <path class="st1" d="M1147.3,356.67v68.63h-6.35v-68.63h6.35Z"/>
    <path class="st1" d="M1206.07,419.76h7.87v5.55h-39.73v-5.55h25.52v-57.53h-25.52v-5.55h31.86v63.08Z"/>
    <path class="st1" d="M1241.22,356.67v36.09h-6.35v-36.09h6.35Z"/>
    <path class="st1" d="M1303.03,374.22c0-8.44-2.66-11.99-10.66-11.99h-15.87v63.08h-6.35v-68.63h22.85c12.06,0,16.38,7.22,16.38,17.44v51.2h-6.35v-51.09Z"/>
  </g>
  <path class="st2" d="M180.34,121.05h21.55c13.75,0,39.85,15.34,49.4,25.24.76.79,6.56,7.73,5.78,8.4-14.55-1.16-31.47,1.59-45.73.01-14.97-1.65-20.6-7.09-38.37-2.64-75.31,18.86-40.41,139.52,37.07,108.56,6.65-2.66,6.65-5,13.92-5h36.27c-7.54,15.96-27.32,28.94-43.93,34.38-88.09,28.86-118.32-74.33-159.89-127.53-5.07-7.48,1.71-19.04,9.94-20.31,16.41-2.54,23.38,18.85,34.09,27.26-1.74-3.57-.09-5.92,0-8.95.77-24.51.17-51.52,2.07-75.71.84-10.72,6.47-23.12,19.39-21.49,5.24.66,11.13,9.31,11.13,14.17v50.98c3.79-3.93,6.95-9.13,9.9-13.75,9.51-14.89,31.8-56.98,43.8-65.53,7.19-5.13,14.3-5.17,20.98.91,13.93,12.68-6.12,34.44-13.1,45.86-5.02,8.22-9.45,16.82-14.28,25.14Z"/>
  <path class="st1" d="M273.37,188.33l1.38,1.77c3.2,19.13,1.18,39.39-8.2,56.58l-64.58.46c-.84,11-11.18,10.82-19.99,9.46-9.03-1.39-5.71-10.4-7.15-15.98-.58-2.25-3.35-4.24-3.88-7.68-.96-6.13-.55-23.25,1.28-29.07,1.94-6.19,6.85-10.63,11.24-15.05l.02-1.52c-17.8-7.16,3.13-21.2,11.04-9.5,5.27-4.77,12.6-13.84,19.95-14.72,14.87-1.79,33.13,1.38,48.38.02,2.66-.19,6.6,9.66,5.77,10.51-2.61-.28-3.91-1.79-6.8-2.13-8.58-1.01-36.77-1.1-44.98.28-7.64,1.28-14.42,11.27-19.7,16.57h76.21ZM202.41,214.6c2.49-3.58-18.58-19.55-23.22-9.02-5.9,13.38,15.71,12.28,23.22,9.02ZM269.69,212.51h-58.87c.25,6.84,2.92,10.97,9.94,11.61,7.28.66,34.66,1.11,40.83-.27,5.34-1.2,6.85-6.89,8.11-11.34ZM205.57,237.74c-3.18-3.11-6.23-10.35-11.03-10.61-3.44-.18-8.12,2.19-12.11,1.15-1.57,3.98,3.31,9.46,6.84,9.46h16.29ZM266.54,231.43h-50.98c-.23,0-1.19-1.57-1.57-1.05-.78,4.98,2.53,6.66,6.92,7.26,8.07,1.12,28.36.91,36.75.15,3.96-.36,8.15-1.78,8.89-6.36Z"/>
  <line class="st0" x1="62.88" y1="321.33" x2="1309.38" y2="321.33"/>
</svg>