<?xml version="1.0" encoding="UTF-8"?>
<svg id="Layer_1" xmlns="http://www.w3.org/2000/svg" version="1.1" xmlns:xlink="http://www.w3.org/1999/xlink" viewBox="0 0 768 1436">
  <!-- Generator: Adobe Illustrator 29.7.1, SVG Export Plug-In . SVG Version: 2.1.1 Build 8)  -->
  <defs>
    <style>
      .st0 {
        fill: url(#linear-gradient2);
      }

      .st1 {
        fill: url(#linear-gradient34);
      }

      .st2 {
        fill: url(#linear-gradient10);
      }

      .st3 {
        fill: url(#linear-gradient21);
      }

      .st4 {
        fill: url(#linear-gradient27);
      }

      .st5 {
        fill: url(#linear-gradient35);
      }

      .st6 {
        fill: #fff;
      }

      .st7 {
        fill: url(#linear-gradient26);
      }

      .st8 {
        fill: url(#linear-gradient9);
      }

      .st9 {
        fill: url(#linear-gradient18);
      }

      .st10 {
        fill: url(#linear-gradient23);
      }

      .st11 {
        fill: url(#linear-gradient11);
      }

      .st12, .st13, .st14, .st15, .st16, .st17, .st18, .st19, .st20 {
        fill: none;
      }

      .st13 {
        stroke: url(#linear-gradient32);
      }

      .st13, .st14, .st21, .st15, .st16, .st17, .st18, .st19, .st20 {
        stroke-miterlimit: 10;
      }

      .st13, .st14, .st16, .st17 {
        stroke-width: .97px;
      }

      .st22 {
        fill: url(#linear-gradient16);
      }

      .st23 {
        fill: url(#linear-gradient24);
      }

      .st14 {
        stroke: url(#linear-gradient33);
      }

      .st24 {
        fill: url(#linear-gradient22);
      }

      .st21 {
        stroke: url(#linear-gradient19);
      }

      .st25 {
        fill: url(#linear-gradient29);
      }

      .st26 {
        fill: url(#linear-gradient12);
      }

      .st27 {
        fill: url(#linear-gradient28);
      }

      .st15 {
        stroke: url(#linear-gradient8);
      }

      .st28 {
        fill: url(#linear-gradient20);
      }

      .st29 {
        fill: url(#linear-gradient4);
      }

      .st16 {
        stroke: url(#linear-gradient31);
      }

      .st30 {
        fill: url(#linear-gradient14);
      }

      .st31 {
        fill: url(#linear-gradient5);
      }

      .st17 {
        stroke: url(#linear-gradient30);
      }

      .st32 {
        fill: url(#linear-gradient3);
      }

      .st33 {
        fill: url(#linear-gradient25);
      }

      .st34 {
        fill: url(#linear-gradient15);
      }

      .st35 {
        fill: url(#linear-gradient17);
      }

      .st18 {
        stroke: url(#linear-gradient7);
      }

      .st36 {
        fill: url(#linear-gradient6);
      }

      .st37 {
        clip-path: url(#clippath-2);
      }

      .st38 {
        fill: #151515;
      }

      .st39 {
        opacity: .38;
      }

      .st19 {
        stroke: url(#linear-gradient1);
        stroke-width: 1.24px;
      }

      .st40 {
        fill: url(#linear-gradient13);
      }

      .st41 {
        fill: url(#linear-gradient);
      }

      .st42 {
        clip-path: url(#clippath);
      }

      .st20 {
        stroke: url(#linear-gradient36);
        stroke-width: .65px;
      }
    </style>
    <clipPath id="clippath">
      <rect class="st12" width="769" height="1366.67"/>
    </clipPath>
    <linearGradient id="linear-gradient" x1="927.86" y1="329.33" x2="-403.33" y2="329.33" gradientUnits="userSpaceOnUse">
      <stop offset="0" stop-color="#5be1fd"/>
      <stop offset="1" stop-color="#27e"/>
    </linearGradient>
    <linearGradient id="linear-gradient1" x1="212.29" y1="188.63" x2="46.31" y2="188.63" xlink:href="#linear-gradient"/>
    <linearGradient id="linear-gradient2" x1="681.42" y1="187.76" x2="691.6" y2="187.76" gradientTransform="translate(1393.58) rotate(-180) scale(1 -1)" xlink:href="#linear-gradient"/>
    <linearGradient id="linear-gradient3" x1="686.56" y1="187.76" x2="696.74" y2="187.76" gradientTransform="translate(1393.58) rotate(-180) scale(1 -1)" xlink:href="#linear-gradient"/>
    <linearGradient id="linear-gradient4" x1="691.7" y1="187.76" x2="701.88" y2="187.76" gradientTransform="translate(1393.58) rotate(-180) scale(1 -1)" xlink:href="#linear-gradient"/>
    <linearGradient id="linear-gradient5" x1="696.84" y1="187.76" x2="707.02" y2="187.76" gradientTransform="translate(1393.58) rotate(-180) scale(1 -1)" xlink:href="#linear-gradient"/>
    <linearGradient id="linear-gradient6" x1="701.98" y1="187.76" x2="712.16" y2="187.76" gradientTransform="translate(1393.58) rotate(-180) scale(1 -1)" xlink:href="#linear-gradient"/>
    <linearGradient id="linear-gradient7" x1="767.15" y1="1334.68" x2="-43.95" y2="1334.68" gradientTransform="translate(41.61 0) scale(.95 1)" xlink:href="#linear-gradient"/>
    <linearGradient id="linear-gradient8" x1="767.15" y1="118.67" x2="-43.95" y2="118.67" gradientTransform="translate(41.61 0) scale(.95 1)" xlink:href="#linear-gradient"/>
    <linearGradient id="linear-gradient9" x1="679.49" y1="1380.11" x2="705.31" y2="1380.11" xlink:href="#linear-gradient"/>
    <linearGradient id="linear-gradient10" x1="687.26" y1="1377" x2="703.77" y2="1377" xlink:href="#linear-gradient"/>
    <linearGradient id="linear-gradient11" x1="688.69" y1="1373.87" x2="697.31" y2="1373.87" xlink:href="#linear-gradient"/>
    <linearGradient id="linear-gradient12" x1="534.35" y1="1364.05" x2="532.25" y2="1387.6" gradientUnits="userSpaceOnUse">
      <stop offset="0" stop-color="#5be1fd"/>
      <stop offset="1" stop-color="#27e"/>
    </linearGradient>
    <linearGradient id="linear-gradient13" x1="366.05" y1="1390.28" x2="365.9" y2="1365.23" xlink:href="#linear-gradient"/>
    <linearGradient id="linear-gradient14" x1="209.45" y1="1373.87" x2="238.57" y2="1373.87" gradientUnits="userSpaceOnUse">
      <stop offset="0" stop-color="#5be1fd"/>
      <stop offset="1" stop-color="#27e"/>
    </linearGradient>
    <linearGradient id="linear-gradient15" x1="72.24" y1="1381.08" x2="96.23" y2="1381.08" xlink:href="#linear-gradient14"/>
    <linearGradient id="linear-gradient16" x1="77.12" y1="1366.69" x2="90.96" y2="1366.69" xlink:href="#linear-gradient14"/>
    <linearGradient id="linear-gradient17" x1="186.23" y1="47.83" x2="212.32" y2="47.83" xlink:href="#linear-gradient14"/>
    <linearGradient id="linear-gradient18" x1="105.43" y1="47.83" x2="131.52" y2="47.83" xlink:href="#linear-gradient14"/>
    <linearGradient id="linear-gradient19" x1="710.26" y1="538.55" x2="46.43" y2="538.55" xlink:href="#linear-gradient"/>
    <clipPath id="clippath-2">
      <rect class="st12" x="842.67" width="769" height="1366.67"/>
    </clipPath>
    <linearGradient id="linear-gradient20" x1="1770.53" y1="329.33" x2="439.34" y2="329.33" xlink:href="#linear-gradient"/>
    <linearGradient id="linear-gradient21" x1="655.51" y1="341.15" x2="675.34" y2="341.15" gradientUnits="userSpaceOnUse">
      <stop offset="0" stop-color="#5be1fd"/>
      <stop offset="1" stop-color="#27e"/>
    </linearGradient>
    <linearGradient id="linear-gradient22" x1="664.78" y1="345.63" x2="666.06" y2="345.63" xlink:href="#linear-gradient21"/>
    <linearGradient id="linear-gradient23" x1="657.7" y1="407.7" x2="674.76" y2="407.7" xlink:href="#linear-gradient21"/>
    <linearGradient id="linear-gradient24" x1="661.17" y1="397.46" x2="671.01" y2="397.46" xlink:href="#linear-gradient21"/>
    <linearGradient id="linear-gradient25" x1="657.01" y1="468.9" x2="672.82" y2="468.9" xlink:href="#linear-gradient21"/>
    <linearGradient id="linear-gradient26" x1="665.85" y1="463.99" x2="673.83" y2="463.99" xlink:href="#linear-gradient21"/>
    <linearGradient id="linear-gradient27" x1="665.71" y1="465.58" x2="670.76" y2="465.58" xlink:href="#linear-gradient21"/>
    <linearGradient id="linear-gradient28" x1="657.8" y1="534.17" x2="673.91" y2="534.17" xlink:href="#linear-gradient21"/>
    <linearGradient id="linear-gradient29" x1="663.13" y1="530.96" x2="668.54" y2="530.96" xlink:href="#linear-gradient21"/>
    <linearGradient id="linear-gradient30" x1="649.89" y1="356.74" x2="177.59" y2="356.74" xlink:href="#linear-gradient"/>
    <linearGradient id="linear-gradient31" x1="649.89" y1="421.33" x2="177.59" y2="421.33" xlink:href="#linear-gradient"/>
    <linearGradient id="linear-gradient32" x1="649.89" y1="487.53" x2="177.59" y2="487.53" xlink:href="#linear-gradient"/>
    <linearGradient id="linear-gradient33" x1="649.89" y1="552.89" x2="177.59" y2="552.89" xlink:href="#linear-gradient"/>
    <linearGradient id="linear-gradient34" x1="583.8" y1="48.55" x2="620.85" y2="48.55" xlink:href="#linear-gradient"/>
    <linearGradient id="linear-gradient35" x1="491.71" y1="45.77" x2="530.51" y2="45.77" gradientUnits="userSpaceOnUse">
      <stop offset="0" stop-color="#27e"/>
      <stop offset="1" stop-color="#5be1fd"/>
    </linearGradient>
    <linearGradient id="linear-gradient36" x1="493.26" y1="74.3" x2="728.54" y2="74.3" xlink:href="#linear-gradient"/>
  </defs>
  <rect width="769" height="1439.56"/>
  <g class="st39">
    <g class="st42">
      <path class="st41" d="M262.27-336.26c-35.86,0-71.05,2.85-105.37,8.31,11.04-.67,22.16-1.02,33.37-1.02,299.25,0,541.84,242.59,541.84,541.84S489.52,754.71,190.27,754.71-351.57,512.12-351.57,212.87c0-98.55,26.32-190.96,72.3-270.58-78.08,109.06-124.05,242.68-124.05,387.04,0,367.6,298,665.6,665.6,665.6s665.6-298,665.6-665.6S629.87-336.26,262.27-336.26Z"/>
    </g>
  </g>
  <g>
    <path class="st6" d="M478.08,189.32v-8.72h-3.71v-3.68h8.4v12.39h-4.69Z"/>
    <path class="st6" d="M486.23,180.6v-10.08h4.69v6.41h11.01v3.68h-15.7ZM503.61,179.9l-7.65,18.99h-4.99l9.07-21.96h3.56v2.97Z"/>
    <path class="st6" d="M511.86,176.92v17.32c1.1.47,2.27.84,3.54,1.12,1.26.28,2.45.42,3.57.42,1.71,0,3.24-.24,4.59-.73,1.35-.49,2.41-1.24,3.2-2.26.78-1.02,1.17-2.33,1.17-3.92v-11.95h4.54v12.45c0,1.7-.35,3.18-1.05,4.45-.7,1.27-1.67,2.32-2.89,3.17-1.23.84-2.64,1.47-4.24,1.88-1.6.41-3.31.62-5.12.62-1.91,0-3.89-.23-5.95-.69-2.06-.46-4.02-1.14-5.89-2.02v-19.85h4.52ZM516.5,192.33c.34-.48.61-1.15.79-2.01s.27-1.82.27-2.86v-10.53h4.54v9.59c0,1.24-.15,2.38-.44,3.4-.3,1.02-.73,1.85-1.31,2.48l-3.84-.06Z"/>
    <path class="st6" d="M544.89,180.6v-10.08h4.69v6.41h11.01v3.68h-15.7ZM562.26,179.9l-7.65,18.99h-4.99l9.07-21.96h3.56v2.97Z"/>
    <path class="st6" d="M567.51,189.32v-8.72h-3.71v-3.68h8.4v12.39h-4.69Z"/>
    <path class="st6" d="M585.37,199.31c-1.14,0-2.4-.11-3.77-.33-1.37-.22-2.67-.55-3.92-.98l.89-3.45c1.18.35,2.36.6,3.53.77s2.17.25,2.99.25c1.9-.02,3.34-.48,4.33-1.37.99-.89,1.49-2.17,1.49-3.86v-9.73h-7.59c-.32.69-.57,1.46-.76,2.31s-.28,1.71-.28,2.59v1.37c.28.09.62.15,1.03.19.4.04.86.06,1.38.06v3.45c-.97.09-1.87.1-2.7.05-.82-.06-1.58-.19-2.28-.4-.7-.21-1.35-.49-1.95-.85l-.06-2.4c0-1.22.14-2.4.42-3.53.28-1.13.67-2.07,1.17-2.83h-2.47v-3.68h18.76v12.65c0,2.27-.45,4.12-1.35,5.55s-2.12,2.49-3.66,3.18c-1.54.68-3.28,1.02-5.21,1.01Z"/>
    <path class="st6" d="M601.83,198.88v-18.28h-2.22v-3.68h6.91v21.96h-4.69Z"/>
    <path class="st6" d="M620.32,198.88v-14.89c0-1.07-.31-1.91-.92-2.5-.62-.6-1.48-.9-2.6-.9h-6.98v-3.68h7.26c2.48,0,4.42.65,5.83,1.94,1.41,1.29,2.12,3.1,2.12,5.41v14.61h-4.69Z"/>
    <path class="st6" d="M637.93,199.31c-1.14,0-2.4-.11-3.77-.33-1.37-.22-2.67-.55-3.92-.98l.89-3.45c1.18.35,2.36.6,3.53.77s2.17.25,2.99.25c1.9-.02,3.34-.48,4.33-1.37.99-.89,1.49-2.17,1.49-3.86v-9.73h-7.59c-.32.69-.57,1.46-.76,2.31s-.28,1.71-.28,2.59v1.37c.28.09.62.15,1.03.19.4.04.86.06,1.38.06v3.45c-.97.09-1.87.1-2.7.05-.82-.06-1.58-.19-2.28-.4-.7-.21-1.35-.49-1.95-.85l-.06-2.4c0-1.22.14-2.4.42-3.53.28-1.13.67-2.07,1.17-2.83h-2.47v-3.68h18.76v12.65c0,2.27-.45,4.12-1.35,5.55s-2.12,2.49-3.66,3.18c-1.54.68-3.28,1.02-5.21,1.01Z"/>
    <path class="st6" d="M653.25,198.88v-7.52c0-1.4.14-2.45.42-3.13.28-.68.53-1.2.75-1.56h3.75c-.11.52-.2,1.12-.28,1.8-.07.68-.11,1.51-.11,2.47v7.94h-4.53ZM666.21,198.88v-14c0-1.48-.35-2.56-1.06-3.25-.71-.69-1.82-1.03-3.33-1.03h-8.55v-3.68h8.85c2.84,0,5.02.7,6.53,2.09,1.51,1.39,2.26,3.41,2.26,6.06v13.81h-4.69Z"/>
  </g>
  <g>
    <path class="st6" d="M61.04,186.16v-5.51h2.56v3.5h6.01v2.01h-8.57ZM70.52,185.78l-4.17,10.37h-2.72l4.95-11.99h1.95v1.62Z"/>
    <path class="st6" d="M73.39,190.92v-4.76h-2.03v-2.01h4.59v6.77h-2.56Z"/>
    <path class="st6" d="M83.14,196.38c-.62,0-1.31-.06-2.06-.18s-1.46-.3-2.14-.53l.48-1.89c.65.19,1.29.33,1.93.42s1.18.14,1.63.14c1.04-.01,1.82-.26,2.36-.75.54-.48.81-1.19.81-2.11v-5.31h-4.14c-.17.38-.31.8-.41,1.26-.1.46-.15.93-.15,1.41v.75c.15.05.34.08.56.1.22.02.47.03.75.03v1.89c-.53.05-1.02.06-1.47.03-.45-.03-.87-.1-1.25-.22-.38-.11-.73-.27-1.06-.46l-.03-1.31c0-.67.08-1.31.23-1.93.15-.62.36-1.13.64-1.54h-1.35v-2.01h10.24v6.91c0,1.24-.25,2.25-.74,3.03-.49.78-1.16,1.36-2,1.73-.84.37-1.79.56-2.84.55Z"/>
    <path class="st6" d="M92.12,196.14v-9.98h-1.21v-2.01h3.77v11.99h-2.56Z"/>
    <path class="st6" d="M102.22,196.14v-8.13c0-.58-.17-1.04-.5-1.37-.34-.33-.81-.49-1.42-.49h-3.81v-2.01h3.96c1.35,0,2.41.35,3.18,1.06s1.15,1.69,1.15,2.95v7.98h-2.56Z"/>
    <path class="st6" d="M111.84,196.38c-.62,0-1.31-.06-2.06-.18s-1.46-.3-2.14-.53l.48-1.89c.65.19,1.29.33,1.93.42s1.18.14,1.63.14c1.04-.01,1.82-.26,2.36-.75.54-.48.81-1.19.81-2.11v-5.31h-4.14c-.17.38-.31.8-.41,1.26-.1.46-.15.93-.15,1.41v.75c.15.05.34.08.56.1.22.02.47.03.75.03v1.89c-.53.05-1.02.06-1.47.03-.45-.03-.87-.1-1.25-.22-.38-.11-.73-.27-1.06-.46l-.03-1.31c0-.67.08-1.31.23-1.93.15-.62.36-1.13.64-1.54h-1.35v-2.01h10.24v6.91c0,1.24-.25,2.25-.74,3.03-.49.78-1.16,1.36-2,1.73-.84.37-1.79.56-2.84.55Z"/>
    <path class="st6" d="M129.73,200.34v-14.18h-5.6v-2.01h8.12v16.18h-2.52Z"/>
    <path class="st6" d="M135.65,196.14v-9.98h-1.21v-2.01h3.77v11.99h-2.56Z"/>
    <path class="st6" d="M145.74,196.14v-8.13c0-.58-.17-1.04-.5-1.37-.34-.33-.81-.49-1.42-.49h-3.81v-2.01h3.96c1.35,0,2.41.35,3.18,1.06s1.15,1.69,1.15,2.95v7.98h-2.56Z"/>
    <path class="st6" d="M154.46,196.42c-.67,0-1.38-.07-2.14-.2-.76-.13-1.56-.35-2.4-.66l.56-1.89c.7.27,1.35.47,1.95.6.6.13,1.15.2,1.66.21,1.04,0,1.86-.27,2.48-.81s.93-1.34.93-2.38v-7.13h2.55v7.02c0,1.14-.24,2.1-.71,2.88s-1.13,1.37-1.97,1.76c-.84.4-1.82.6-2.92.6ZM150.52,184.15h2.56l1.86,8.64c.09.44.21.83.34,1.16.13.33.33.63.58.9l-1.96-.02c-.31-.23-.6-.53-.89-.92s-.48-.83-.59-1.34l-1.91-8.42Z"/>
  </g>
  <rect class="st19" x="46.93" y="165.11" width="164.73" height="47.04" rx="9.11" ry="9.11"/>
  <g>
    <polygon class="st0" points="710.15 176.63 712.16 176.63 703.99 187.76 712.16 198.88 710.15 198.88 701.98 187.76 710.15 176.63"/>
    <polygon class="st32" points="705.01 176.63 707.02 176.63 698.85 187.76 707.02 198.88 705.01 198.88 696.84 187.76 705.01 176.63"/>
    <polygon class="st29" points="699.87 176.63 701.88 176.63 693.71 187.76 701.88 198.88 699.87 198.88 691.7 187.76 699.87 176.63"/>
    <polygon class="st31" points="694.73 176.63 696.74 176.63 688.57 187.76 696.74 198.88 694.73 198.88 686.56 187.76 694.73 176.63"/>
    <polygon class="st36" points="689.59 176.63 691.6 176.63 683.42 187.76 691.6 198.88 689.59 198.88 681.42 187.76 689.59 176.63"/>
  </g>
  <rect class="st38" width="768" height="118.67"/>
  <rect class="st38" y="1334.67" width="768" height="102.71"/>
  <line class="st18" y1="1334.67" x2="768" y2="1334.67"/>
  <line class="st15" y1="118.67" x2="768" y2="118.67"/>
  <g>
    <path class="st8" d="M704.54,1373.19c-.49-1.17-1.2-2.21-2.1-3.11-.9-.9-1.95-1.61-3.11-2.1-1.21-.51-2.49-.77-3.81-.77s-2.61.26-3.81.77c-1.17.49-2.21,1.2-3.11,2.1-.9.9-1.61,1.95-2.1,3.11-.51,1.21-.77,2.49-.77,3.81s.26,2.61.77,3.81c.29.69.66,1.34,1.09,1.94l-.87.87c-.26-.12-.57-.08-.79.13l-5.84,5.84c-.78.78-.78,2.05,0,2.83.38.38.88.59,1.42.59s1.04-.21,1.42-.59l5.84-5.84c.21-.21.26-.53.13-.79l.87-.87c.6.44,1.25.8,1.94,1.09,1.21.51,2.49.77,3.81.77s2.61-.26,3.81-.77c1.17-.49,2.21-1.2,3.11-2.1.9-.9,1.61-1.95,2.1-3.11.51-1.21.77-2.49.77-3.81s-.26-2.61-.77-3.81ZM688.37,1386.21l-5.84,5.84c-.28.28-.64.43-1.03.43s-.76-.15-1.03-.43c-.57-.57-.57-1.49,0-2.06l5.84-5.84s.07-.04.1-.04.07.01.1.04l.03.03s0,0,0,0,0,0,0,0l1.8,1.8s0,0,0,0,0,0,0,0l.03.03c.06.06.06.15,0,.21ZM688.53,1385.39l-1.41-1.41.79-.79c.21.26.43.51.67.74.24.24.49.46.74.67l-.79.79ZM702.06,1383.54c-1.75,1.75-4.07,2.71-6.54,2.71-2.05,0-4-.66-5.6-1.89,0,0-.02-.01-.03-.02-.32-.25-.63-.51-.92-.8-.29-.29-.56-.6-.8-.92,0,0-.01-.02-.02-.03-1.22-1.6-1.89-3.55-1.89-5.6,0-2.47.96-4.8,2.71-6.54s4.07-2.71,6.54-2.71,4.8.96,6.54,2.71c1.75,1.75,2.71,4.07,2.71,6.54s-.96,4.8-2.71,6.54Z"/>
    <path class="st2" d="M701.35,1371.16c-1.56-1.56-3.63-2.42-5.84-2.42s-4.28.86-5.84,2.42c-1.56,1.56-2.42,3.63-2.42,5.84s.86,4.28,2.42,5.84c1.56,1.56,3.63,2.42,5.84,2.42s4.28-.86,5.84-2.42c1.56-1.56,2.42-3.63,2.42-5.84s-.86-4.28-2.42-5.84ZM700.96,1382.45c-1.46,1.46-3.39,2.26-5.45,2.26s-4-.8-5.45-2.26c-1.46-1.46-2.26-3.39-2.26-5.45s.8-4,2.26-5.45,3.39-2.26,5.45-2.26,4,.8,5.45,2.26,2.26,3.39,2.26,5.45-.8,4-2.26,5.45Z"/>
    <path class="st11" d="M695.94,1370.19c-1.58-.1-3.15.36-4.44,1.29-1.3.95-2.23,2.33-2.61,3.89-.11.46-.18.94-.19,1.41-.01.36.23.67.58.75.06.01.11.02.17.02.3,0,.56-.17.68-.46.36-.85.87-1.59,1.52-2.21,1.2-1.14,2.69-1.77,4.18-1.77,0,0,.01,0,.02,0,.79,0,1.43-.61,1.46-1.4v-.02c.01-.38-.12-.75-.38-1.03-.26-.28-.61-.45-.99-.48ZM696.76,1371.68v.02s0,0,0,0c-.02.49-.42.87-.91.87,0,0-.01,0-.02,0-1.63,0-3.25.68-4.55,1.92-.71.67-1.26,1.48-1.65,2.4-.06.14-.19.13-.23.12-.04,0-.16-.05-.16-.2.01-.43.07-.87.18-1.3.35-1.44,1.21-2.71,2.4-3.58,1.08-.78,2.37-1.2,3.69-1.2.13,0,.26,0,.39.01.5.03.88.45.86.94Z"/>
  </g>
  <polygon class="st26" points="533.15 1363.73 536.95 1373.72 546.94 1377.52 536.95 1381.33 533.15 1391.31 529.34 1381.33 519.36 1377.52 529.34 1373.72 533.15 1363.73"/>
  <g>
    <path class="st6" d="M639.57,1418.55v-10.55h8.13v10.55h-8.13ZM640.67,1417.62h5.94v-8.72h-5.94v8.72Z"/>
    <path class="st6" d="M651.61,1413.81v-4.9h-2.07v-.91h3.17v5.81h-1.1Z"/>
    <path class="st6" d="M654.48,1418.55v-.92h6.06l1.1-.05,1.3.12v.86h-8.46ZM660.54,1418.3v-6.27c0-1.11-.24-1.91-.72-2.39-.48-.49-1.27-.73-2.36-.73h-2.41v-.91h2.44c1.39,0,2.43.33,3.12,1,.69.66,1.03,1.68,1.03,3.04v6.27h-1.1Z"/>
    <path class="st6" d="M666.78,1418.68c-.44,0-.9-.04-1.38-.13-.48-.08-.99-.21-1.52-.37l.19-.85c1.02.3,1.92.44,2.72.43,1.03-.02,1.83-.3,2.4-.84.57-.54.85-1.3.85-2.28v-5.73h-5.89v-.91h6.99v6.36c0,.96-.18,1.76-.53,2.41s-.86,1.13-1.51,1.45c-.65.32-1.42.48-2.31.47Z"/>
    <path class="st6" d="M678.78,1418.55v-7.56c0-.63-.19-1.14-.56-1.51-.37-.38-.87-.57-1.5-.57h-3.74v-.91h3.72c.99,0,1.78.27,2.34.82.57.55.85,1.31.85,2.28v7.45h-1.1Z"/>
    <path class="st6" d="M687.9,1408v9.01c.61.26,1.24.46,1.9.61.66.15,1.3.22,1.92.22.86,0,1.63-.12,2.33-.37s1.26-.62,1.68-1.13c.42-.51.63-1.15.63-1.91v-6.42h1.08v6.49c0,.72-.15,1.35-.45,1.89-.3.54-.71.98-1.23,1.34-.52.36-1.13.62-1.81.79-.68.17-1.4.26-2.17.26-.81,0-1.64-.09-2.49-.28-.85-.19-1.67-.47-2.45-.85v-9.64h1.07ZM690.73,1415.91c.28-.24.49-.57.63-.97.14-.41.2-.89.2-1.46v-5.48h1.08v5.33c0,.61-.08,1.12-.23,1.54s-.4.79-.76,1.13l-.93-.09Z"/>
    <path class="st6" d="M701.02,1418.55v-9.64h-1.38v-.91h2.49v10.55h-1.1Z"/>
    <path class="st6" d="M708.39,1418.7c-.47,0-.98-.05-1.52-.14-.54-.1-1.09-.23-1.64-.42l.22-.85c.54.16,1.06.28,1.57.36.51.08.97.11,1.38.11,1.05-.01,1.87-.29,2.46-.82.59-.54.88-1.3.88-2.3v-5.73h-4.75c-.24.36-.44.83-.59,1.41s-.23,1.16-.23,1.74v.93c.2.1.44.16.71.19.26.03.65.05,1.16.05v.98c-.5,0-.91-.01-1.24-.04-.33-.03-.63-.09-.9-.17-.26-.08-.53-.2-.81-.34l-.02-1.39c0-.62.09-1.24.26-1.84.17-.61.4-1.11.68-1.5h-1.19v-.91h8.02v6.38c0,.96-.18,1.76-.56,2.4-.37.64-.89,1.12-1.55,1.44s-1.44.48-2.33.48Z"/>
    <path class="st6" d="M716.73,1413.81v-4.9h-2.07v-.91h3.17v5.81h-1.1Z"/>
    <path class="st6" d="M720.69,1418.55v-10.55h3.66c1.4,0,2.45.33,3.12,1,.68.66,1.02,1.68,1.02,3.06v6.49h-1.09v-6.52c0-1.1-.24-1.9-.71-2.39-.47-.49-1.25-.73-2.32-.73h-2.58v9.64h-1.1Z"/>
  </g>
  <g>
    <path class="st6" d="M475.4,1418.55v-10.55h8.13v10.55h-8.13ZM476.5,1417.62h5.94v-8.72h-5.94v8.72Z"/>
    <path class="st6" d="M487.44,1413.81v-4.9h-2.07v-.91h3.17v5.81h-1.1Z"/>
    <path class="st6" d="M492.46,1408v9.01c.61.26,1.24.46,1.9.61.66.15,1.3.22,1.92.22.86,0,1.63-.12,2.33-.37s1.26-.62,1.68-1.13c.42-.51.63-1.15.63-1.91v-6.42h1.08v6.49c0,.72-.15,1.35-.45,1.89-.3.54-.71.98-1.23,1.34-.52.36-1.13.62-1.81.79-.68.17-1.4.26-2.17.26-.81,0-1.64-.09-2.49-.28-.85-.19-1.67-.47-2.45-.85v-9.64h1.07ZM495.29,1415.91c.28-.24.49-.57.63-.97.14-.41.2-.89.2-1.46v-5.48h1.08v5.33c0,.61-.08,1.12-.23,1.54s-.4.79-.76,1.13l-.93-.09Z"/>
    <path class="st6" d="M508.36,1418.55v-.91c.96-.04,1.73-.33,2.31-.87.58-.54.88-1.26.88-2.16v-5.7h-6.67v-.91h7.77v6.59c0,.81-.17,1.5-.52,2.09-.35.58-.84,1.04-1.49,1.35s-1.41.49-2.29.52ZM505.1,1422.31v-7.86c0-.55.04-.98.11-1.29.07-.31.16-.61.27-.89h.94c-.09.29-.15.6-.19.93-.04.33-.05.75-.05,1.26v7.86h-1.08Z"/>
    <path class="st6" d="M516.24,1418.55v-9.64h-1.38v-.91h2.49v10.55h-1.1Z"/>
    <path class="st6" d="M519.25,1418.55v-.92h6.06l1.1-.05,1.3.12v.86h-8.46ZM525.31,1418.3v-6.27c0-1.11-.24-1.91-.72-2.39-.48-.49-1.27-.73-2.36-.73h-2.41v-.91h2.44c1.39,0,2.43.33,3.12,1,.69.66,1.03,1.68,1.03,3.04v6.27h-1.1Z"/>
    <path class="st6" d="M529.38,1418.55l.87-7.11c.07-.51.22-.98.45-1.42.23-.44.51-.77.84-.99.04-.02.08-.05.12-.07.04-.02.09-.04.12-.06l-.02-.04c-.31.05-.67.13-1.08.23-.41.11-.86.24-1.34.39l-.28-.87c.46-.16.96-.3,1.49-.42s1.06-.21,1.6-.28,1.03-.1,1.48-.1c1.33,0,2.34.36,3.06,1.08.71.72,1.07,1.78,1.08,3.18v6.45h-4.21v-.91h3.11v-5.63c0-1.06-.25-1.86-.75-2.4-.5-.54-1.22-.8-2.17-.8-.63,0-1.17.23-1.61.7-.44.47-.71,1.09-.8,1.88l-.88,7.17h-1.08Z"/>
    <path class="st6" d="M544.62,1418.55v-10.55h8.13v10.55h-8.13ZM545.71,1417.62h5.94v-8.72h-5.94v8.72Z"/>
    <path class="st6" d="M556.65,1413.81v-4.9h-2.07v-.91h3.17v5.81h-1.1Z"/>
    <path class="st6" d="M559.53,1418.55v-.92h6.06l1.1-.05,1.3.12v.86h-8.46ZM565.59,1418.3v-6.27c0-1.11-.24-1.91-.72-2.39-.48-.49-1.27-.73-2.36-.73h-2.41v-.91h2.44c1.39,0,2.43.33,3.12,1,.69.66,1.03,1.68,1.03,3.04v6.27h-1.1Z"/>
    <path class="st6" d="M571.82,1418.68c-.44,0-.9-.04-1.38-.13-.48-.08-.99-.21-1.52-.37l.19-.85c1.02.3,1.92.44,2.72.43,1.03-.02,1.83-.3,2.4-.84.57-.54.85-1.3.85-2.28v-5.73h-5.89v-.91h6.99v6.36c0,.96-.18,1.76-.53,2.41s-.86,1.13-1.51,1.45c-.65.32-1.42.48-2.31.47Z"/>
    <path class="st6" d="M583.82,1418.55v-7.56c0-.63-.19-1.14-.56-1.51-.37-.38-.87-.57-1.5-.57h-3.74v-.91h3.72c.99,0,1.78.27,2.34.82.57.55.85,1.31.85,2.28v7.45h-1.1Z"/>
  </g>
  <g>
    <path class="st6" d="M326.07,1418.55v-10.55h8.13v10.55h-8.13ZM327.16,1417.62h5.94v-8.72h-5.94v8.72Z"/>
    <path class="st6" d="M338.1,1413.81v-4.9h-2.07v-.91h3.17v5.81h-1.1Z"/>
    <path class="st6" d="M341.96,1418.55l.87-7.11c.07-.51.22-.98.45-1.42.24-.44.52-.77.84-.99.04-.02.08-.05.12-.07.05-.02.09-.04.12-.06l-.02-.04c-.31.05-.67.13-1.08.23-.41.11-.86.24-1.34.39l-.28-.87c.46-.16.96-.3,1.49-.42.53-.12,1.06-.21,1.6-.28.53-.07,1.03-.1,1.48-.1,1.33,0,2.34.36,3.06,1.08.71.72,1.07,1.78,1.08,3.18v6.45h-4.21v-.91h3.11v-5.63c0-1.06-.25-1.86-.75-2.4-.5-.54-1.22-.8-2.17-.8-.63,0-1.17.23-1.61.7s-.71,1.09-.8,1.88l-.88,7.17h-1.08Z"/>
    <path class="st6" d="M353.12,1418.55v-10.55h3.66c1.4,0,2.45.33,3.12,1,.68.66,1.02,1.68,1.02,3.06v6.49h-1.09v-6.52c0-1.1-.24-1.9-.71-2.39-.47-.49-1.25-.73-2.32-.73h-2.58v9.64h-1.1Z"/>
    <path class="st6" d="M367.83,1418.55v-10.55h8.13v10.55h-8.13ZM368.92,1417.62h5.94v-8.72h-5.94v8.72Z"/>
    <path class="st6" d="M379.86,1413.81v-4.9h-2.07v-.91h3.17v5.81h-1.1Z"/>
    <path class="st6" d="M382.74,1418.55v-.92h6.06l1.1-.05,1.3.12v.86h-8.46ZM388.8,1418.3v-6.27c0-1.11-.24-1.91-.72-2.39-.48-.49-1.27-.73-2.36-.73h-2.41v-.91h2.44c1.39,0,2.43.33,3.12,1,.69.66,1.03,1.68,1.03,3.04v6.27h-1.1Z"/>
    <path class="st6" d="M395.03,1418.68c-.44,0-.9-.04-1.38-.13-.48-.08-.99-.21-1.52-.37l.19-.85c1.02.3,1.92.44,2.72.43,1.03-.02,1.83-.3,2.4-.84.57-.54.85-1.3.85-2.28v-5.73h-5.89v-.91h6.99v6.36c0,.96-.18,1.76-.53,2.41s-.86,1.13-1.51,1.45c-.65.32-1.42.48-2.31.47Z"/>
    <path class="st6" d="M407.03,1418.55v-7.56c0-.63-.19-1.14-.56-1.51-.37-.38-.87-.57-1.5-.57h-3.74v-.91h3.72c.99,0,1.78.27,2.34.82.57.55.85,1.31.85,2.28v7.45h-1.1Z"/>
  </g>
  <g>
    <path class="st6" d="M199.26,1418.55v-10.55h8.13v10.55h-8.13ZM200.36,1417.62h5.94v-8.72h-5.94v8.72Z"/>
    <path class="st6" d="M211.3,1413.81v-4.9h-2.07v-.91h3.17v5.81h-1.1Z"/>
    <path class="st6" d="M216.68,1418.55l-1.56-9.57-.82-.11v-.87h4.75v.91h-2.82l1.59,9.64h-1.14Z"/>
    <path class="st6" d="M225.76,1418.55v-7.56c0-.63-.19-1.14-.56-1.51s-.87-.57-1.5-.57h-3.74v-.91h3.72c.99,0,1.77.27,2.34.82.57.55.85,1.31.85,2.28v7.45h-1.1Z"/>
    <path class="st6" d="M231.75,1418.68c-.44,0-.9-.04-1.38-.13-.48-.08-.99-.21-1.52-.37l.19-.85c1.02.3,1.93.44,2.72.43,1.03-.02,1.83-.3,2.4-.84.57-.54.85-1.3.85-2.28v-5.73h-5.89v-.91h6.99v6.36c0,.96-.18,1.76-.53,2.41-.36.64-.86,1.13-1.51,1.45s-1.42.48-2.31.47Z"/>
    <path class="st6" d="M238.99,1418.55l.87-7.11c.07-.51.22-.98.45-1.42.24-.44.52-.77.84-.99.04-.02.08-.05.12-.07.05-.02.09-.04.12-.06l-.02-.04c-.31.05-.67.13-1.08.23-.41.11-.86.24-1.34.39l-.28-.87c.46-.16.96-.3,1.49-.42.53-.12,1.06-.21,1.6-.28.53-.07,1.03-.1,1.48-.1,1.33,0,2.34.36,3.06,1.08.71.72,1.07,1.78,1.08,3.18v6.45h-4.21v-.91h3.11v-5.63c0-1.06-.25-1.86-.75-2.4-.5-.54-1.22-.8-2.17-.8-.63,0-1.17.23-1.61.7s-.71,1.09-.8,1.88l-.88,7.17h-1.08Z"/>
  </g>
  <g>
    <path class="st6" d="M40.59,1413.81v-4.9h-2.07v-.91h3.17v5.81h-1.1Z"/>
    <path class="st6" d="M43.7,1408.91v-4.25h1.09v3.34h6.15v.91h-7.24ZM51.42,1408.67l-4.07,9.87h-1.19l4.4-10.55h.86v.68Z"/>
    <path class="st6" d="M54.58,1408v9.01c.61.26,1.24.46,1.9.61.66.15,1.3.22,1.92.22.86,0,1.63-.12,2.33-.37s1.26-.62,1.68-1.13c.42-.51.63-1.15.63-1.91v-6.42h1.08v6.49c0,.72-.15,1.35-.45,1.89-.3.54-.71.98-1.23,1.34-.52.36-1.13.62-1.81.79s-1.4.26-2.17.26c-.81,0-1.64-.09-2.49-.28-.85-.19-1.67-.47-2.45-.85v-9.64h1.07ZM57.41,1415.91c.28-.24.49-.57.63-.97.14-.41.2-.89.2-1.46v-5.48h1.08v5.33c0,.61-.08,1.12-.23,1.54s-.4.79-.76,1.13l-.93-.09Z"/>
    <path class="st6" d="M70.39,1408.91v-4.25h1.09v3.34h6.15v.91h-7.24ZM78.1,1408.67l-4.07,9.87h-1.19l4.4-10.55h.86v.68Z"/>
    <path class="st6" d="M81.12,1413.81v-4.9h-2.07v-.91h3.17v5.81h-1.1Z"/>
    <path class="st6" d="M88.35,1418.7c-.47,0-.98-.05-1.52-.14-.55-.1-1.09-.23-1.64-.42l.22-.85c.54.16,1.06.28,1.57.36s.97.11,1.38.11c1.05-.01,1.87-.29,2.45-.82.59-.54.88-1.3.88-2.3v-5.73h-4.76c-.24.36-.44.83-.59,1.41-.15.58-.23,1.16-.23,1.74v.93c.21.1.44.16.71.19s.65.05,1.16.05v.98c-.49,0-.91-.01-1.24-.04s-.63-.09-.9-.17c-.26-.08-.53-.2-.81-.34l-.02-1.39c0-.62.09-1.24.26-1.84.17-.61.4-1.11.68-1.5h-1.19v-.91h8.02v6.38c0,.96-.19,1.76-.56,2.4-.37.64-.89,1.12-1.55,1.44s-1.44.48-2.33.48Z"/>
    <path class="st6" d="M96.38,1418.55v-9.64h-1.38v-.91h2.49v10.55h-1.1Z"/>
    <path class="st6" d="M105.13,1418.55v-7.56c0-.63-.19-1.14-.56-1.51s-.87-.57-1.5-.57h-3.74v-.91h3.72c.99,0,1.77.27,2.34.82.57.55.85,1.31.85,2.28v7.45h-1.1Z"/>
    <path class="st6" d="M112.32,1418.7c-.47,0-.98-.05-1.52-.14-.55-.1-1.09-.23-1.64-.42l.22-.85c.54.16,1.06.28,1.57.36s.97.11,1.38.11c1.05-.01,1.87-.29,2.45-.82.59-.54.88-1.3.88-2.3v-5.73h-4.76c-.24.36-.44.83-.59,1.41-.15.58-.23,1.16-.23,1.74v.93c.21.1.44.16.71.19s.65.05,1.16.05v.98c-.49,0-.91-.01-1.24-.04s-.63-.09-.9-.17c-.26-.08-.53-.2-.81-.34l-.02-1.39c0-.62.09-1.24.26-1.84.17-.61.4-1.11.68-1.5h-1.19v-.91h8.02v6.38c0,.96-.19,1.76-.56,2.4-.37.64-.89,1.12-1.55,1.44s-1.44.48-2.33.48Z"/>
    <path class="st6" d="M126.13,1418.55v-6.52c0-1.11-.24-1.91-.72-2.39-.48-.49-1.27-.73-2.36-.73h-3.55v-.91h3.58c1.4,0,2.44.33,3.13,1s1.03,1.68,1.03,3.04v6.52h-1.1ZM119.53,1418.55v-3.59c0-.56.04-1,.11-1.32s.17-.62.28-.9h.93c-.08.29-.15.6-.19.94-.04.34-.06.76-.06,1.27v3.6h-1.08Z"/>
  </g>
  <path class="st40" d="M372.96,1368.22c.4,3.63-2.55,5.29-2.55,5.29.13-12.25-8.31-12.09-8.31-12.09,1.74,1.51,3.75,6.95-1.34,10.43-.07.05-.15.1-.22.15-6.55,4.65-6.02,16.61,1.08,18.52-1.62-2.6-1.46-6.5,1.37-8.51.04-.03.08-.06.12-.09,2.87-1.96,1.74-5.03.76-5.89,0,0,4.77-.09,4.69,6.82,0,0,1.66-.94,1.44-2.99,0,0,1.78,3.68,1.74,6.83-.02,1.34-.39,2.58-1.01,3.61,3.13-1.91,5.26-4.74,5.31-9.06.08-5.58-3.08-13.03-3.08-13.03Z"/>
  <path class="st30" d="M238.2,1369.02l-3.48-3.48.62-.67c.28-.3.25-.77-.06-1.07l-1.33-1.33c-.31-.31-.78-.33-1.08-.05l-.66.62-3.36-3.36c-.49-.49-1.28-.49-1.77,0l-4.79,4.79c-.49.49-.49,1.28,0,1.77l3.19,3.19-15.53,14.73c-.32.3-.5.72-.5,1.18,0,.54.22,1.08.63,1.49l.97.97c.41.41.95.64,1.49.63.46,0,.88-.19,1.18-.51l14.64-15.6,3.27,3.27c.49.49,1.28.49,1.77,0l4.79-4.79c.49-.49.49-1.28,0-1.77ZM233.39,1363s.02,0,.02.02l1.33,1.33s.01.02.02.03l-.59.62-1.41-1.41.62-.59ZM213.16,1387.39c-.2.21-.45.26-.63.26-.33,0-.67-.14-.93-.4l-.97-.97c-.26-.26-.41-.6-.4-.93,0-.18.05-.43.26-.63l15.54-14.74,1.79,1.79-14.66,15.62ZM237.66,1370.25l-4.79,4.79c-.19.19-.49.19-.68,0l-9.34-9.34c-.19-.19-.19-.49,0-.68l4.79-4.79c.19-.19.49-.19.68,0l9.34,9.34c.19.19.19.49,0,.68Z"/>
  <g>
    <path class="st34" d="M91.76,1388.51h-15.08c-4.69-.65-4.83-4.65-4.13-8.48.57-3.14,2.28-6.44,5.95-6.39.74.01,1.93,1.05,2.63,1.41,2.05,1.08,4.31,1.04,6.33-.08.68-.38,1.76-1.34,2.53-1.34,5.09,0,6.49,6.44,6.2,10.47-.18,2.41-2.03,4.2-4.43,4.41ZM78.35,1375.34c-2.76.11-3.78,2.81-4.18,5.14-.2,1.15-.4,3.16-.09,4.26.38,1.32,1.59,2,2.9,2.09h14.47c3.06-.28,3.22-2.54,3-5.08s-1.18-6.33-4.39-6.41c-.98.55-1.81,1.21-2.86,1.61-3.19,1.23-6.09.37-8.72-1.6l-.12-.02Z"/>
    <path class="st22" d="M84.7,1359.78c5.14.43,7.97,6.43,5.14,10.73s-8.75,4.14-11.55.04c-2.92-4.28-.02-10.35,5.12-10.77.35-.03.94-.03,1.29,0ZM83.51,1361.48c-3.64.33-5.84,4.43-4.11,7.67s6.19,3.76,8.61.98c3.1-3.58.22-9.08-4.5-8.66Z"/>
  </g>
  <g>
    <path class="st6" d="M170.73,53.76l21.87-.02c3.5.14,6.33,2.83,6.59,6.33-.22,3.8.28,7.9,0,11.66-.24,3.14-2.78,5.82-5.91,6.17-5.25.21-10.72-.28-15.94,0-3.81.2-5.1,2.64-7.93,4.57-2.25,1.53-4.76.39-5.11-2.25v-20.06c.22-3.48,2.96-6.21,6.45-6.39ZM170.64,56.44c-1.92.21-3.39,1.64-3.66,3.55l.03,20.17c.22.44.45.34.8.11,3.4-2.19,4.53-4.82,9.19-5.07,5.25-.29,10.75.22,16.03,0,1.9-.28,3.34-1.81,3.49-3.73.28-3.64-.22-7.65,0-11.33-.22-2.09-1.81-3.58-3.9-3.73l-21.96.03Z"/>
    <path class="st6" d="M174.41,64.57c1.74-.26,2.12,2.45.39,2.66s-2.08-2.41-.39-2.66Z"/>
    <path class="st6" d="M188.76,64.57c1.47-.2,2.1,1.92.77,2.53-1.92.88-2.76-2.26-.77-2.53Z"/>
    <path class="st6" d="M182.71,66.87c-1.08,1.08-2.96-.33-2.02-1.73,1.07-1.6,3.37.38,2.02,1.73Z"/>
  </g>
  <g>
    <path class="st6" d="M102.32,84.25c-.46-.04-1.14-.27-1.57-.45-1.59-.69-2.65-2.1-3.07-3.76l-6.61-.03c-1.03-.07-1.97-.81-2.24-1.81-.54-2.01,1.32-2.81,2.33-4.21,2.66-3.67,1.42-6.61,1.88-10.65.52-4.57,4.22-8.28,8.81-8.73l.02-3.53c.29-.93,1.59-1.07,1.99-.16.28.65-.01,3.56.12,3.69,4.77.44,8.56,4.57,8.82,9.31.21,3.87-.66,6.72,1.87,10.13,1.02,1.38,2.88,2.17,2.26,4.21-.3,1-1.21,1.66-2.24,1.74h-6.59c-.38,1.74-1.6,3.23-3.26,3.87-.35.13-.97.33-1.33.37-.31.03-.89.03-1.19,0ZM102.24,56.69c-2.02.17-3.95,1.17-5.26,2.7-3.08,3.58-1.24,7.59-2.17,11.68-.56,2.43-1.99,4.66-3.89,6.26-.13.19-.05.4.14.51h23.66c.18-.11.26-.27.17-.48-.06-.14-.86-.79-1.06-.99-1.54-1.63-2.64-3.86-3-6.09-.44-2.75.32-5.86-.62-8.47-1.19-3.29-4.47-5.4-7.97-5.12ZM105.91,80.01h-5.97c.92,2.81,4.97,2.8,5.97,0Z"/>
    <path class="st6" d="M112.39,51.92c.65-.12.93.2,1.35.61,2.63,2.66,4.52,7,4.71,10.74.04.85.19,2.16-.96,2.23-1.37.08-1.09-1.3-1.16-2.16-.23-2.81-1.2-5.49-2.84-7.77-.56-.77-1.24-1.41-1.81-2.17-.23-.6.05-1.36.72-1.48Z"/>
    <path class="st6" d="M92.89,51.92c.8-.17,1.5.49,1.3,1.3-.12.47-.88,1.09-1.21,1.51-1.9,2.33-3.15,5.14-3.45,8.15-.05.53.02,1.68-.19,2.07-.4.78-1.61.74-1.92-.09-.23-.61.02-2.5.14-3.21.49-3.09,2.02-6.35,4.13-8.67.23-.26.91-.98,1.21-1.04Z"/>
  </g>
  <circle class="st35" cx="199.27" cy="47.83" r="13.04"/>
  <path class="st38" d="M197.38,46.93h1.78c.83,0,1.54.1,2.13.29.59.19,1.06.46,1.43.79.37.34.64.73.81,1.17s.26.9.26,1.39c0,.89-.21,1.64-.63,2.26s-.99,1.09-1.72,1.42-1.54.49-2.46.49c-.6,0-1.19-.08-1.75-.25-.56-.17-1.06-.42-1.5-.75-.44-.33-.78-.75-1.04-1.25-.26-.5-.38-1.09-.38-1.76h2.41c0,.4.1.76.29,1.08.19.31.46.56.81.74.35.18.75.27,1.21.27.73,0,1.3-.2,1.72-.59.42-.39.63-.94.63-1.64,0-.54-.11-.98-.32-1.32-.21-.34-.51-.59-.9-.75-.39-.16-.85-.24-1.38-.24h-1.4v-1.33ZM198.78,46.35c.54,0,.98-.09,1.33-.27.35-.18.61-.43.79-.76.17-.32.26-.7.26-1.12s-.08-.8-.23-1.11c-.16-.31-.39-.56-.71-.72-.32-.17-.72-.25-1.2-.25-.4,0-.77.08-1.09.24s-.59.38-.78.67c-.19.29-.29.63-.29,1.04h-2.41c0-.76.2-1.43.59-2.01.4-.58.94-1.04,1.62-1.37.68-.33,1.46-.5,2.32-.5.91,0,1.72.15,2.4.45.69.3,1.22.75,1.61,1.35.39.6.58,1.34.58,2.22,0,.42-.09.83-.28,1.24-.19.41-.47.79-.84,1.13-.37.34-.83.62-1.38.83s-1.19.31-1.92.31h-1.78v-1.35h1.4Z"/>
  <circle class="st9" cx="118.48" cy="47.83" r="13.04"/>
  <path class="st38" d="M123.25,41.71l-5.63,12.82h-2.54l5.62-12.23h-7.29v-1.94h9.83v1.34Z"/>
  <rect class="st21" x="46.93" y="302.44" width="662.83" height="472.23" rx="12.96" ry="12.96"/>
  <g class="st39">
    <g class="st37">
      <path class="st28" d="M1104.94-336.26c-35.86,0-71.05,2.85-105.37,8.31,11.04-.67,22.16-1.02,33.37-1.02,299.25,0,541.84,242.59,541.84,541.84s-242.59,541.84-541.84,541.84S491.1,512.12,491.1,212.87c0-98.55,26.32-190.96,72.3-270.58-78.08,109.06-124.05,242.68-124.05,387.04,0,367.6,298,665.6,665.6,665.6s665.6-298,665.6-665.6-298-665.6-665.6-665.6Z"/>
    </g>
  </g>
  <g>
    <path class="st6" d="M461.76,348.57c-1.02,0-1.92-.22-2.69-.65-.77-.43-1.37-1.04-1.8-1.82-.43-.78-.64-1.69-.64-2.73v-8.51h1.4v8.52c0,1.2.34,2.17,1.03,2.91.69.74,1.59,1.11,2.7,1.11s2.01-.37,2.69-1.11c.69-.74,1.03-1.71,1.03-2.91v-4.85c0-.85-.17-1.5-.5-1.93s-.83-.65-1.48-.65c-.35,0-.68.04-1,.13-.32.09-.66.21-1.01.38l-.29-.99c.42-.24.84-.42,1.26-.54.43-.12.87-.18,1.32-.18,1.01,0,1.78.31,2.3.94.53.63.79,1.54.79,2.74v4.94c0,1.04-.21,1.95-.64,2.73-.42.78-1.02,1.39-1.78,1.82-.77.44-1.67.65-2.7.65Z"/>
    <path class="st6" d="M475.77,348.57c-1.09,0-2.06-.25-2.89-.76-.83-.51-1.48-1.22-1.93-2.14s-.69-1.99-.7-3.22v-1.65c0-.66.09-1.3.27-1.91.18-.61.43-1.15.75-1.63.32-.48.69-.85,1.11-1.11.03-.02.08-.04.14-.07.06-.03.12-.05.18-.07v-.05c-.31.03-.71.11-1.21.23-.5.12-1.05.27-1.64.44l-.29-1.12c.59-.18,1.23-.33,1.92-.46.69-.13,1.38-.23,2.07-.31.69-.07,1.34-.11,1.93-.11,1.19,0,2.21.25,3.08.74.87.49,1.54,1.19,2.01,2.09s.71,1.97.71,3.21v1.77c0,1.22-.23,2.3-.69,3.22s-1.1,1.63-1.93,2.14c-.83.51-1.8.76-2.9.76ZM475.77,347.35c.82,0,1.55-.21,2.17-.62.62-.41,1.1-.98,1.44-1.72.34-.73.51-1.59.51-2.56v-1.76c0-.99-.18-1.84-.53-2.56-.35-.72-.85-1.28-1.5-1.67-.65-.39-1.41-.59-2.28-.59-.76,0-1.43.2-2.02.6-.58.4-1.04.96-1.37,1.69s-.52,1.59-.55,2.58v1.71c0,.98.17,1.83.51,2.56.34.73.82,1.3,1.44,1.72.62.41,1.34.62,2.17.62Z"/>
    <path class="st6" d="M489.66,348.57c-1.02,0-1.92-.22-2.69-.65-.77-.43-1.37-1.04-1.8-1.82-.43-.78-.64-1.69-.64-2.73v-8.51h1.4v8.52c0,1.2.34,2.17,1.03,2.91.69.74,1.59,1.11,2.7,1.11s2.01-.37,2.69-1.11c.69-.74,1.03-1.71,1.03-2.91v-4.85c0-.85-.17-1.5-.5-1.93s-.83-.65-1.48-.65c-.35,0-.68.04-1,.13-.32.09-.66.21-1.01.38l-.29-.99c.42-.24.84-.42,1.26-.54.43-.12.87-.18,1.32-.18,1.01,0,1.78.31,2.3.94.53.63.79,1.54.79,2.74v4.94c0,1.04-.21,1.95-.64,2.73-.42.78-1.02,1.39-1.78,1.82-.77.44-1.67.65-2.7.65Z"/>
    <path class="st6" d="M504.33,348.33v-12.31h-1.77v-1.17h3.18v13.48h-1.41Z"/>
    <path class="st6" d="M514.69,348.57c-1.02,0-1.92-.22-2.69-.65-.77-.43-1.37-1.04-1.8-1.82-.43-.78-.64-1.69-.64-2.73v-8.51h1.4v8.52c0,1.2.34,2.17,1.03,2.91.69.74,1.59,1.11,2.7,1.11s2.01-.37,2.69-1.11c.69-.74,1.03-1.71,1.03-2.91v-4.85c0-.85-.17-1.5-.5-1.93s-.83-.65-1.48-.65c-.35,0-.68.04-1,.13-.32.09-.66.21-1.01.38l-.29-.99c.42-.24.84-.42,1.26-.54.43-.12.87-.18,1.32-.18,1.01,0,1.78.31,2.3.94.53.63.79,1.54.79,2.74v4.94c0,1.04-.21,1.95-.64,2.73-.42.78-1.02,1.39-1.78,1.82-.77.44-1.67.65-2.7.65Z"/>
    <path class="st6" d="M524.07,348.33v-12.31h-1.77v-1.17h3.18v13.48h-1.41Z"/>
    <path class="st6" d="M539,348.33l-9.99-13.48h1.58l9.98,13.48h-1.57ZM529.46,348.33v-5.1c0-1.19.23-2.17.69-2.94.46-.77,1.15-1.32,2.08-1.66l.64.75c-1.36.54-2.03,1.69-2.03,3.46v5.49h-1.37ZM540.58,334.85l-4.75,7.93-.96-1.05,4.11-6.88h1.59Z"/>
    <path class="st6" d="M553.39,347.49c0-.27.09-.5.26-.68.17-.19.41-.28.71-.28s.55.09.73.28c.18.19.27.42.27.69s-.09.48-.27.66c-.18.18-.42.27-.73.27s-.54-.09-.71-.27c-.17-.18-.26-.4-.26-.67ZM553.43,336.83c0-.27.09-.5.26-.68.17-.19.41-.28.71-.28s.55.09.73.28c.18.19.27.42.27.69s-.09.48-.27.66-.42.27-.73.27-.54-.09-.71-.27c-.17-.18-.26-.4-.26-.67Z"/>
    <path class="st6" d="M562.89,348.33v-1.17c1.22-.05,2.21-.42,2.96-1.11.75-.69,1.12-1.61,1.12-2.76v-7.28h-8.52v-1.17h9.93v8.42c0,1.03-.22,1.92-.66,2.67-.44.75-1.08,1.32-1.9,1.73-.82.4-1.8.63-2.92.66ZM558.73,353.14v-10.04c0-.7.05-1.25.14-1.65.09-.4.21-.78.35-1.14h1.2c-.12.37-.2.77-.24,1.19-.05.42-.07.96-.07,1.61v10.04h-1.37Z"/>
    <path class="st6" d="M577.59,348.57c-1.09,0-2.06-.25-2.89-.76-.83-.51-1.48-1.22-1.93-2.14s-.69-1.99-.7-3.22v-1.65c0-.66.09-1.3.27-1.91.18-.61.43-1.15.75-1.63.32-.48.69-.85,1.11-1.11.03-.02.08-.04.14-.07.06-.03.12-.05.18-.07v-.05c-.31.03-.71.11-1.21.23-.5.12-1.05.27-1.64.44l-.29-1.12c.59-.18,1.23-.33,1.92-.46.69-.13,1.38-.23,2.07-.31.69-.07,1.34-.11,1.93-.11,1.19,0,2.21.25,3.08.74.87.49,1.54,1.19,2.01,2.09s.71,1.97.71,3.21v1.77c0,1.22-.23,2.3-.69,3.22s-1.1,1.63-1.93,2.14c-.83.51-1.8.76-2.9.76ZM577.59,347.35c.82,0,1.55-.21,2.17-.62.62-.41,1.1-.98,1.44-1.72.34-.73.51-1.59.51-2.56v-1.76c0-.99-.18-1.84-.53-2.56-.35-.72-.85-1.28-1.5-1.67-.65-.39-1.41-.59-2.28-.59-.76,0-1.43.2-2.02.6-.58.4-1.04.96-1.37,1.69s-.52,1.59-.55,2.58v1.71c0,.98.17,1.83.51,2.56.34.73.82,1.3,1.44,1.72.62.41,1.34.62,2.17.62Z"/>
    <path class="st6" d="M589.47,348.59c-.66,0-1.37-.07-2.13-.22-.76-.15-1.55-.38-2.39-.69l.39-1.09c.75.29,1.45.51,2.12.66.67.15,1.28.22,1.85.22,1.32,0,2.4-.37,3.22-1.11.82-.74,1.23-1.81,1.23-3.21v-8.29h1.4v8.26c0,1.19-.24,2.19-.73,3-.49.82-1.16,1.43-2.01,1.85-.85.42-1.84.62-2.96.62ZM585.76,334.85h1.41l2.28,10.18c.14.64.28,1.17.44,1.58.15.42.35.81.6,1.18l-1.17-.03c-.29-.39-.53-.79-.73-1.2-.2-.4-.38-.91-.51-1.53l-2.31-10.18Z"/>
    <path class="st6" d="M607.16,348.33v-8.33c0-1.42-.31-2.44-.92-3.06-.62-.62-1.62-.93-3.01-.93h-4.54v-1.17h4.57c1.79,0,3.12.42,4,1.27.88.85,1.32,2.14,1.32,3.88v8.33h-1.41ZM598.73,348.33v-4.58c0-.72.05-1.28.14-1.68.09-.4.21-.79.36-1.15h1.19c-.11.37-.19.77-.24,1.2-.05.43-.08.97-.08,1.62v4.6h-1.37Z"/>
    <path class="st6" d="M617.38,348.33v-13.48h10.38v13.48h-10.38ZM618.78,347.15h7.59v-11.13h-7.59v11.13Z"/>
    <path class="st6" d="M632.95,334.85v11.52c.78.33,1.59.59,2.43.77.84.18,1.66.28,2.45.28,1.09,0,2.09-.16,2.98-.47.89-.32,1.61-.8,2.14-1.45.54-.65.8-1.46.8-2.44v-8.2h1.37v8.29c0,.92-.19,1.73-.57,2.41-.38.69-.91,1.26-1.58,1.71s-1.44.79-2.31,1.01c-.87.22-1.79.33-2.77.33-1.03,0-2.09-.12-3.18-.36-1.09-.24-2.13-.6-3.14-1.08v-12.31h1.36ZM636.56,344.96c.36-.31.63-.72.8-1.24.17-.52.26-1.14.26-1.87v-7h1.39v6.81c0,.78-.1,1.43-.29,1.96s-.52,1.01-.97,1.44l-1.19-.12Z"/>
  </g>
  <g>
    <path class="st6" d="M480.81,412.01c-1.02,0-1.92-.22-2.69-.65-.77-.43-1.37-1.04-1.8-1.82-.43-.78-.64-1.69-.64-2.73v-8.51h1.4v8.52c0,1.2.34,2.17,1.03,2.91.69.74,1.59,1.11,2.7,1.11s2.01-.37,2.69-1.11c.69-.74,1.03-1.71,1.03-2.91v-4.85c0-.85-.17-1.5-.5-1.93s-.83-.65-1.48-.65c-.35,0-.68.04-1,.13-.32.09-.66.21-1.01.38l-.29-.99c.42-.24.84-.42,1.26-.54.43-.12.87-.18,1.32-.18,1.01,0,1.78.31,2.3.94.53.63.79,1.54.79,2.74v4.94c0,1.04-.21,1.95-.64,2.73-.42.78-1.02,1.39-1.78,1.82-.77.44-1.67.65-2.7.65Z"/>
    <path class="st6" d="M494.82,412.01c-1.09,0-2.06-.25-2.89-.76-.83-.51-1.48-1.22-1.93-2.14s-.69-1.99-.7-3.22v-1.65c0-.66.09-1.3.27-1.91.18-.61.43-1.15.75-1.63.32-.48.69-.85,1.11-1.11.03-.02.08-.04.14-.07.06-.03.12-.05.18-.07v-.05c-.31.03-.71.11-1.21.23-.5.12-1.05.27-1.64.44l-.29-1.12c.59-.18,1.23-.33,1.92-.46.69-.13,1.38-.23,2.07-.31.69-.07,1.34-.11,1.93-.11,1.19,0,2.21.25,3.08.74.87.49,1.54,1.19,2.01,2.09s.71,1.97.71,3.21v1.77c0,1.22-.23,2.3-.69,3.22s-1.1,1.63-1.93,2.14c-.83.51-1.8.76-2.9.76ZM494.82,410.79c.82,0,1.55-.21,2.17-.62.62-.41,1.1-.98,1.44-1.72.34-.73.51-1.59.51-2.56v-1.76c0-.99-.18-1.84-.53-2.56-.35-.72-.85-1.28-1.5-1.67-.65-.39-1.41-.59-2.28-.59-.76,0-1.43.2-2.02.6-.58.4-1.04.96-1.37,1.69s-.52,1.59-.55,2.58v1.71c0,.98.17,1.83.51,2.56.34.73.82,1.3,1.44,1.72.62.41,1.34.62,2.17.62Z"/>
    <path class="st6" d="M508.7,412.01c-1.02,0-1.92-.22-2.69-.65-.77-.43-1.37-1.04-1.8-1.82-.43-.78-.64-1.69-.64-2.73v-8.51h1.4v8.52c0,1.2.34,2.17,1.03,2.91.69.74,1.59,1.11,2.7,1.11s2.01-.37,2.69-1.11c.69-.74,1.03-1.71,1.03-2.91v-4.85c0-.85-.17-1.5-.5-1.93s-.83-.65-1.48-.65c-.35,0-.68.04-1,.13-.32.09-.66.21-1.01.38l-.29-.99c.42-.24.84-.42,1.26-.54.43-.12.87-.18,1.32-.18,1.01,0,1.78.31,2.3.94.53.63.79,1.54.79,2.74v4.94c0,1.04-.21,1.95-.64,2.73-.42.78-1.02,1.39-1.78,1.82-.77.44-1.67.65-2.7.65Z"/>
    <path class="st6" d="M523.37,411.77v-12.31h-1.77v-1.17h3.18v13.48h-1.41Z"/>
    <path class="st6" d="M533.73,412.01c-1.02,0-1.92-.22-2.69-.65-.77-.43-1.37-1.04-1.8-1.82-.43-.78-.64-1.69-.64-2.73v-8.51h1.4v8.52c0,1.2.34,2.17,1.03,2.91.69.74,1.59,1.11,2.7,1.11s2.01-.37,2.69-1.11c.69-.74,1.03-1.71,1.03-2.91v-4.85c0-.85-.17-1.5-.5-1.93s-.83-.65-1.48-.65c-.35,0-.68.04-1,.13-.32.09-.66.21-1.01.38l-.29-.99c.42-.24.84-.42,1.26-.54.43-.12.87-.18,1.32-.18,1.01,0,1.78.31,2.3.94.53.63.79,1.54.79,2.74v4.94c0,1.04-.21,1.95-.64,2.73-.42.78-1.02,1.39-1.78,1.82-.77.44-1.67.65-2.7.65Z"/>
    <path class="st6" d="M543.11,411.77v-12.31h-1.77v-1.17h3.18v13.48h-1.41Z"/>
    <path class="st6" d="M558.04,411.77l-9.99-13.48h1.58l9.98,13.48h-1.57ZM548.5,411.77v-5.1c0-1.19.23-2.17.69-2.94.46-.77,1.15-1.32,2.08-1.66l.64.75c-1.36.54-2.03,1.69-2.03,3.46v5.49h-1.37ZM559.63,398.29l-4.75,7.93-.96-1.05,4.11-6.88h1.59Z"/>
    <path class="st6" d="M567.15,410.92c0-.27.09-.5.26-.68.17-.19.41-.28.71-.28s.55.09.73.28c.18.19.27.42.27.69s-.09.48-.27.66c-.18.18-.42.27-.73.27s-.54-.09-.71-.27c-.17-.18-.26-.4-.26-.67ZM567.18,400.26c0-.27.09-.5.26-.68.17-.19.41-.28.71-.28s.55.09.73.28c.18.19.27.42.27.69s-.09.48-.27.66-.42.27-.73.27-.54-.09-.71-.27c-.17-.18-.26-.4-.26-.67Z"/>
    <path class="st6" d="M582.03,411.77l-9.99-13.48h1.58l9.98,13.48h-1.57ZM572.49,411.77v-5.1c0-1.19.23-2.17.69-2.94.46-.77,1.15-1.32,2.08-1.66l.64.75c-1.36.54-2.03,1.69-2.03,3.46v5.49h-1.37ZM583.62,398.29l-4.75,7.93-.96-1.05,4.11-6.88h1.59Z"/>
    <path class="st6" d="M585.45,399.46v-5.43h1.4v4.26h7.85v1.17h-9.25ZM595.31,399.16l-5.2,12.61h-1.52l5.62-13.48h1.1v.87Z"/>
    <path class="st6" d="M597.86,411.77l1.11-9.08c.08-.65.28-1.25.58-1.81.3-.56.66-.98,1.07-1.27.05-.03.1-.06.16-.09.06-.03.11-.05.16-.08l-.02-.05c-.39.06-.85.16-1.37.29s-1.09.3-1.71.5l-.36-1.11c.59-.21,1.23-.39,1.91-.54.68-.15,1.36-.27,2.04-.35.68-.08,1.31-.13,1.89-.13,1.69,0,3,.46,3.9,1.39s1.37,2.28,1.37,4.07v8.23h-5.38v-1.17h3.97v-7.2c0-1.35-.32-2.38-.95-3.06-.64-.69-1.56-1.03-2.77-1.03-.81,0-1.49.3-2.06.9s-.9,1.4-1.03,2.4l-1.12,9.16h-1.39Z"/>
    <path class="st6" d="M617.33,411.77v-13.48h10.38v13.48h-10.38ZM618.73,410.59h7.59v-11.13h-7.59v11.13Z"/>
    <path class="st6" d="M632.9,398.29v11.52c.78.33,1.59.59,2.43.77.84.18,1.66.28,2.45.28,1.09,0,2.09-.16,2.98-.47.89-.32,1.61-.8,2.14-1.45.54-.65.8-1.46.8-2.44v-8.2h1.37v8.29c0,.92-.19,1.73-.57,2.41-.38.69-.91,1.26-1.58,1.71s-1.44.79-2.31,1.01c-.87.22-1.79.33-2.77.33-1.03,0-2.09-.12-3.18-.36-1.09-.24-2.13-.6-3.14-1.08v-12.31h1.36ZM636.52,408.4c.36-.31.63-.72.8-1.24.17-.52.26-1.14.26-1.87v-7h1.39v6.81c0,.78-.1,1.43-.29,1.96s-.52,1.01-.97,1.44l-1.19-.12Z"/>
  </g>
  <g>
    <path class="st6" d="M596.06,472.33c0-.27.09-.5.26-.68.17-.19.41-.28.71-.28s.55.09.73.28c.18.19.27.42.27.69s-.09.48-.27.66c-.18.18-.42.27-.73.27s-.54-.09-.71-.27c-.17-.18-.26-.4-.26-.67ZM596.09,461.67c0-.27.09-.5.26-.68.17-.19.41-.28.71-.28s.55.09.73.28c.18.19.27.42.27.69s-.09.48-.27.66-.42.27-.73.27-.54-.09-.71-.27c-.17-.18-.26-.4-.26-.67Z"/>
    <path class="st6" d="M601.95,477.98v-17.12h-1.78v-1.17h3.18v18.28h-1.4Z"/>
    <path class="st6" d="M607.93,473.17v-12.31h-1.77v-1.17h3.18v13.48h-1.41Z"/>
    <path class="st6" d="M617.34,473.37c-.6,0-1.25-.06-1.95-.18-.7-.12-1.4-.3-2.1-.53l.28-1.09c.69.21,1.35.36,2,.46.65.1,1.24.14,1.76.14,1.34-.02,2.39-.37,3.14-1.05.75-.69,1.13-1.66,1.13-2.93v-7.32h-6.07c-.31.46-.56,1.06-.75,1.8-.19.74-.29,1.48-.29,2.22v1.19c.26.12.56.21.9.25.34.04.83.06,1.48.06v1.25c-.63,0-1.16-.02-1.59-.06s-.81-.11-1.14-.22-.68-.25-1.03-.44l-.02-1.78c0-.79.11-1.58.33-2.36.22-.78.51-1.42.87-1.92h-1.52v-1.17h10.24v8.15c0,1.22-.24,2.24-.71,3.06-.47.82-1.13,1.43-1.98,1.84-.84.41-1.83.62-2.97.62Z"/>
    <path class="st6" d="M625.74,460.86v-5.43h1.4v4.26h7.85v1.17h-9.25ZM635.59,460.56l-5.2,12.61h-1.52l5.62-13.48h1.1v.87Z"/>
    <path class="st6" d="M643.4,473.41c-1.02,0-1.92-.22-2.69-.65-.77-.43-1.37-1.04-1.8-1.82-.43-.78-.64-1.69-.64-2.73v-8.51h1.4v8.52c0,1.2.34,2.17,1.03,2.91.69.74,1.59,1.11,2.7,1.11s2.01-.37,2.69-1.11c.69-.74,1.03-1.71,1.03-2.91v-4.85c0-.85-.17-1.5-.5-1.93s-.83-.65-1.48-.65c-.35,0-.68.04-1,.13-.32.09-.66.21-1.01.38l-.29-.99c.42-.24.84-.42,1.26-.54.43-.12.87-.18,1.32-.18,1.01,0,1.78.31,2.3.94.53.63.79,1.54.79,2.74v4.94c0,1.04-.21,1.95-.64,2.73-.42.78-1.02,1.39-1.78,1.82-.77.44-1.67.65-2.7.65Z"/>
  </g>
  <g>
    <path class="st6" d="M592.52,539c0-.27.09-.5.26-.68.17-.19.41-.28.71-.28s.55.09.73.28c.18.19.27.42.27.69s-.09.48-.27.66c-.18.18-.42.27-.73.27s-.54-.09-.71-.27c-.17-.18-.26-.4-.26-.67ZM592.55,528.34c0-.27.09-.5.26-.68.17-.19.41-.28.71-.28s.55.09.73.28c.18.19.27.42.27.69s-.09.48-.27.66-.42.27-.73.27-.54-.09-.71-.27c-.17-.18-.26-.4-.26-.67Z"/>
    <path class="st6" d="M597.63,539.84v-13.48h10.38v13.48h-10.38ZM599.03,538.66h7.59v-11.13h-7.59v11.13Z"/>
    <path class="st6" d="M612.61,539.84v-12.31h-1.77v-1.17h3.18v13.48h-1.41Z"/>
    <path class="st6" d="M622.15,539.84v-1.17c1.22-.05,2.21-.42,2.96-1.11.75-.69,1.12-1.61,1.12-2.76v-7.28h-8.52v-1.17h9.93v8.42c0,1.03-.22,1.92-.66,2.67-.44.75-1.08,1.32-1.9,1.73-.82.4-1.8.63-2.92.66ZM618,544.65v-10.04c0-.7.05-1.25.14-1.65.09-.4.21-.78.35-1.14h1.2c-.12.37-.2.77-.24,1.19-.05.42-.07.96-.07,1.61v10.04h-1.37Z"/>
    <path class="st6" d="M632.62,533.79v-6.26h-2.65v-1.17h4.05v7.43h-1.41Z"/>
    <path class="st6" d="M637.55,539.84l1.11-9.08c.08-.65.28-1.25.58-1.81.3-.56.66-.98,1.07-1.27.05-.03.1-.06.16-.09.06-.03.11-.05.16-.08l-.02-.05c-.39.06-.85.16-1.37.29s-1.09.3-1.71.5l-.36-1.11c.59-.21,1.23-.39,1.91-.54.68-.15,1.36-.27,2.04-.35.68-.08,1.31-.13,1.89-.13,1.69,0,3,.46,3.9,1.39s1.37,2.28,1.37,4.07v8.23h-5.38v-1.17h3.97v-7.2c0-1.35-.32-2.38-.95-3.06-.64-.69-1.56-1.03-2.77-1.03-.81,0-1.49.3-2.06.9s-.9,1.4-1.03,2.4l-1.12,9.16h-1.39Z"/>
  </g>
  <g>
    <path class="st6" d="M187,177.66c1.5-.2,2.81.79,3.64,1.96,1.01,1.43.55,2.81-.48,4.02-3.48,4.05-8.11,7.68-11.71,11.69-.86.66-2.2.68-3.27.76-.85.06-2.21.27-2.45-.88-.15-.74.13-3.96.54-4.56,3.88-3.58,7.37-7.8,11.24-11.35.73-.67,1.48-1.5,2.5-1.64ZM187.1,179.27c-.5.1-1.18.9-1.48,1.32l2.65,2.58c.95-.87,1.85-1.57.87-2.86-.49-.64-1.19-1.21-2.04-1.04ZM174.32,194.47c.99-.08,2.09-.08,3.02-.36l9.59-9.57.05-.25-2.48-2.48h-.2l-9.63,9.64c-.29.93-.27,2.03-.36,3.02Z"/>
    <path class="st6" d="M170.76,198.83l21.87-.02c.89.08.99,1.29.13,1.55l-21.52.07c-1.03.03-1.45-1.15-.48-1.6Z"/>
  </g>
  <g>
    <path class="st3" d="M667.74,346.91l.16.96c.34.07,1.48-.15,1.64.16.1.21.1,1.29-.12,1.4h-7.99c-.22-.11-.22-1.2-.12-1.4.15-.31,1.29-.09,1.64-.16l.16-.96h-6.75c-.25,0-.89-.68-.84-1l.06-12.33c.13-.31.37-.54.68-.68l18.29-.02c.4.16.75.51.8.96v12.07c.05.32-.59,1-.84,1h-6.75ZM674.7,344.35v-10.51c0-.18-.4-.42-.6-.36h-17.35c-.2-.06-.6.18-.6.36v10.51h18.54ZM674.7,344.99h-18.54c.02.51-.18,1.23.52,1.28l17.77-.06c.4-.18.22-.87.26-1.22ZM663.58,347.86h3.68l-.16-.96h-3.31s-.21.96-.21.96ZM668.94,348.5h-7.03v.32h7.03v-.32Z"/>
    <path class="st24" d="M665,345.32c.21-.06.92-.07,1.03.14.29.65-1.2.65-1.24.2-.01-.15.08-.3.22-.34Z"/>
  </g>
  <g>
    <path class="st10" d="M671.58,412.99h-10.73c-3.33-.46-3.44-3.31-2.94-6.04.41-2.23,1.62-4.58,4.23-4.55.53,0,1.37.74,1.87,1.01,1.46.77,3.06.74,4.51-.05.49-.27,1.25-.95,1.8-.95,3.62,0,4.62,4.58,4.41,7.45-.13,1.72-1.45,2.99-3.15,3.13ZM662.04,403.62c-1.96.08-2.69,2-2.97,3.66-.14.82-.29,2.25-.06,3.03.27.94,1.13,1.42,2.06,1.49h10.29c2.18-.2,2.29-1.81,2.13-3.61s-.84-4.51-3.13-4.56c-.69.39-1.29.86-2.04,1.15-2.27.87-4.33.26-6.21-1.14h-.08Z"/>
    <path class="st23" d="M666.56,392.55c3.66.31,5.67,4.57,3.65,7.63s-6.23,2.94-8.22.03c-2.08-3.04-.01-7.36,3.65-7.66.25-.02.67-.02.92,0ZM665.71,393.76c-2.59.23-4.16,3.15-2.92,5.46s4.41,2.68,6.12.7c2.21-2.55.16-6.46-3.2-6.16Z"/>
  </g>
  <g>
    <path class="st33" d="M662.28,466.98c-.07.1.55,1.04.67,1.2.72,1.02,2.02,2.32,3.09,2.97.17.1.69.41.85.34.25-.12.96-1.04,1.29-1.29.57-.42,1.29-.43,1.87-.03.46.32,1.92,1.83,2.31,2.3.46.56.63,1.14.32,1.84-.15.34-1.24,1.49-1.57,1.79-2.43,2.26-7.57-1.24-9.48-3.03s-5.24-6.32-4.49-9.17c.2-.78,1.36-1.97,1.99-2.48.5-.4.98-.55,1.62-.36.49.14,2.27,1.93,2.66,2.4,1.23,1.46.19,2.35-.89,3.39-.07.07-.13.11-.23.14ZM660.21,461.92c-.12,0-.3.1-.41.18-.24.17-1.3,1.23-1.48,1.48-.7.95-.16,2.53.23,3.52,1.41,3.53,5.22,7.26,8.85,8.46,2.03.67,2.77.31,4.08-1.25.31-.37.52-.57.26-1.05-.18-.34-1.64-1.78-2-2.08-.39-.32-.61-.47-1.08-.16-.63.42-1.29,1.78-2.15,1.48-1.26-.45-3.13-2.21-3.98-3.26-.41-.51-1.35-1.78-1.25-2.43.06-.41,1.25-1.26,1.54-1.69.25-.38.21-.57-.06-.92-.31-.4-1.67-1.77-2.07-2.07-.13-.1-.32-.22-.49-.21Z"/>
    <path class="st7" d="M666.21,460.01c.3-.06,1.12.2,1.45.3,2.92.92,5.3,3.43,6.04,6.4.08.34.3.98-.06,1.19-.79.47-.88-1.04-1.04-1.53-.75-2.27-2.69-4.26-4.95-5.06-.37-.13-1.37-.3-1.58-.46-.32-.24-.25-.76.15-.85Z"/>
    <path class="st4" d="M666.2,463.04c.18-.01.73.16.93.22,1.49.5,2.92,1.86,3.42,3.36.13.4.5,1.5-.21,1.5-.57,0-.59-.93-.77-1.37-.42-1.05-1.3-1.95-2.33-2.41-.31-.14-1.28-.35-1.41-.5-.27-.33-.02-.78.37-.8Z"/>
  </g>
  <g>
    <path class="st27" d="M668.93,537.11c1.41.28,4.13.84,4.8,2.27.99,2.11-2.13,3.17-3.64,3.52-2.67.62-5.88.62-8.55-.01-1.17-.28-3.53-1.05-3.72-2.45-.32-2.29,3.3-3,4.94-3.33-.88-1.67-2.59-3.42-2.79-5.35-.27-2.65,1.03-5.17,3.48-6.26,4.5-2,9.2,2.04,8.15,6.79-.38,1.75-1.85,3.26-2.68,4.82ZM665.33,526.09c-3.47.35-5.36,4.21-3.7,7.24,1.04,1.9,2.63,4.22,3.86,6.04.07.11.28.49.4.46l4.28-6.69c1.69-3.43-.99-7.45-4.83-7.06ZM663.25,538.13c-.51.01-1.51.27-2.03.42-1.9.56-3.67,1.69-.85,2.85s8.13,1.18,10.99-.02c1.81-.76,1.96-1.62.1-2.46-.98-.44-2.08-.63-3.13-.79l-.15.14c-.67.83-1.21,2.22-1.91,2.97-.32.35-.6.33-.89-.04l-1.9-2.97c-.07-.1-.12-.09-.23-.09Z"/>
    <path class="st25" d="M665.25,528.31c2.97-.46,4.47,3.07,2.16,4.82s-5.33-1-3.92-3.49c.32-.57,1.11-1.22,1.76-1.32ZM665.47,529.38c-1.62.28-1.6,2.9.06,3.13,2.57.36,2.52-3.57-.06-3.13Z"/>
  </g>
  <line class="st17" x1="649.89" y1="356.74" x2="177.59" y2="356.74"/>
  <line class="st16" x1="649.89" y1="421.33" x2="177.59" y2="421.33"/>
  <line class="st13" x1="649.89" y1="487.53" x2="177.59" y2="487.53"/>
  <line class="st14" x1="649.89" y1="552.89" x2="177.59" y2="552.89"/>
  <path class="st6" d="M559.53,51.14v15.55h-1.54l-2.62-8.72c-1.74,6.16-6.62,8.88-11.29,8.88s-7.18-2.51-7.18-5.95c0-5.49,6.16-8.72,18.01-9.49v-1.28c0-4.92-1.9-8.05-6.98-8.05s-8.11,3.28-8.11,9.08h-1.8c0-6.98,4.1-10.98,10.98-10.98s10.52,3.9,10.52,10.98ZM554.92,52.89c-8.47.56-13.39,2.77-13.39,7.29,0,2.51,1.64,4.1,4.72,4.1,4.51,0,8.67-4.26,8.67-11.39Z"/>
  <path class="st6" d="M580.06,40.16v2.15c-7.08-.15-9.85,5.44-9.85,12.62v11.39h-4.62v-25.65h4.62v6.82c1.59-4.26,4.87-7.34,9.85-7.34Z"/>
  <path class="st1" d="M620.85,66.33h-4.87v-32.02l-14.57,32.38h-.77l-14.78-32.53v32.17h-2.05V30.41h5.75l13.08,28.78,12.93-28.78h5.28v35.92Z"/>
  <path class="st6" d="M648.65,51.14v15.55h-1.54l-2.62-8.72c-1.74,6.16-6.62,8.88-11.29,8.88s-7.18-2.51-7.18-5.95c0-5.49,6.16-8.72,18.01-9.49v-1.28c0-4.92-1.9-8.05-6.98-8.05s-8.11,3.28-8.11,9.08h-1.8c0-6.98,4.1-10.98,10.98-10.98s10.52,3.9,10.52,10.98ZM644.03,52.89c-8.47.56-13.39,2.77-13.39,7.29,0,2.51,1.64,4.1,4.72,4.1,4.51,0,8.67-4.26,8.67-11.39Z"/>
  <path class="st6" d="M672,57.35c0,7.03-3.64,9.44-7.8,9.44s-7.75-2.46-7.75-8.41v-16.01h-4.77v-1.69h4.77l3.13-6.67h1.49v6.67h10.42v1.69h-10.42v16.98c0,3.49,1.54,5.28,4.36,5.28,2.62,0,4.62-1.9,4.67-7.29h1.9Z"/>
  <path class="st6" d="M688.47,66.84c-7.7,0-13.85-5.08-13.85-13.39s6.16-13.29,13.6-13.29c6.21,0,11.13,3.44,11.7,10.62h-1.8c-.56-5.85-3.95-8.93-8.88-8.93-6,0-9.75,4.36-9.75,11.39s3.9,11.49,10.11,11.49c5.23,0,8.88-3.49,8.88-8.67h1.74c0,6.93-5.28,10.78-11.75,10.78Z"/>
  <path class="st6" d="M728.54,49.65v16.68h-4.62v-16.57c0-4.62-2.57-7.13-6.31-7.13-4.36,0-7.54,3.64-7.95,9.49v14.21h-4.62V30.41h4.62v17.29c1.38-4.62,4.67-7.54,9.65-7.54,5.44,0,9.24,3.59,9.24,9.49Z"/>
  <g>
    <path class="st6" d="M495.49,80.97h7.21v12.95h-1.2v-11.91h-4.82v9.29c0,1.84-1.17,2.62-2.3,2.62h-.77v-1.05h.77c.79,0,1.1-.65,1.1-1.53v-10.38Z"/>
    <path class="st6" d="M509.38,80.97v12.95h-1.2v-12.95h1.2Z"/>
    <path class="st6" d="M522.73,93.92h-1.34l-4.07-7.57-.55.48c-.58.5-.74,1.03-.74,1.76v5.32h-1.2v-5.32c0-.88.26-1.7,1.08-2.37l.93-.8-2.42-4.46h1.32l3.55,6.58.86-.73c.53-.46.86-.92.86-1.78v-4.07h1.2v4.07c0,.84-.19,1.51-1.37,2.54l-1.05.9,2.95,5.45Z"/>
    <path class="st6" d="M527.3,82.02v-1.05h4.72c1.39,0,2.71.78,2.71,2.56,0,1.17-.36,2.47-.53,3.16l-1.7,7.23h-1.22l1.75-7.4c.19-.86.5-1.97.5-2.98s-.65-1.53-1.73-1.53h-4.51ZM528.79,84.87v11.66h-1.2v-11.66h1.2Z"/>
    <path class="st6" d="M547.14,90.17c0,2.49-1.68,3.96-3.67,3.96h-.05c-2.08,0-3.71-1.45-3.71-3.96v-9.2h4.55c1.94,0,2.88,1.24,2.88,2.91v6.29ZM545.94,83.88c0-1.01-.48-1.87-1.68-1.87h-3.35v8.15c0,2.2,1.29,2.91,2.52,2.91h.05c1.2,0,2.47-.73,2.47-2.91v-6.29Z"/>
    <path class="st6" d="M558.37,80.97h1.2v8.05c0,2.03-.58,3.48-2.54,4.15l-5.22,1.8v-1.09l2.8-.99-2.47-11.93h1.27l2.3,11.55.96-.34c1.13-.4,1.7-.94,1.7-3.12v-8.09Z"/>
    <path class="st6" d="M568.22,93.92h-1.2l3.09-11.91h-5.7v-3.58h1.2v2.54h6.06l-3.45,12.95Z"/>
    <path class="st6" d="M591.1,93.92h-7.28v-12.95h7.28v12.95ZM589.9,82.02h-4.89v10.86h4.89v-10.86Z"/>
    <path class="st6" d="M597.64,80.97v6.81h-1.2v-6.81h1.2Z"/>
    <path class="st6" d="M602.55,80.97h3.16c2.28,0,3.09,1.36,3.09,3.29v9.66h-1.2v-9.64c0-1.59-.5-2.26-2.01-2.26h-3.04v-1.05Z"/>
    <path class="st6" d="M620.4,84.28c0-1.59-.5-2.26-2.01-2.26h-3v11.91h-1.2v-12.95h4.31c2.28,0,3.09,1.36,3.09,3.29v9.66h-1.2v-9.64Z"/>
    <path class="st6" d="M628.16,80.97v12.95h-1.2v-12.95h1.2Z"/>
    <path class="st6" d="M640.98,90.17c0,2.49-1.68,3.96-3.67,3.96h-.05c-2.09,0-3.71-1.45-3.71-3.96v-9.2h4.55c1.94,0,2.88,1.24,2.88,2.91v6.29ZM639.78,83.88c0-1.01-.48-1.87-1.68-1.87h-3.35v8.15c0,2.2,1.29,2.91,2.52,2.91h.05c1.2,0,2.47-.73,2.47-2.91v-6.29Z"/>
    <path class="st6" d="M654.58,80.97v15.55h-1.15v-15.55h1.15Z"/>
    <path class="st6" d="M661.24,80.97v6.81h-1.2v-6.81h1.2Z"/>
    <path class="st6" d="M672.29,92.88h1.49v1.05h-7.5v-1.05h4.82v-10.86h-4.82v-1.05h6.01v11.91Z"/>
    <path class="st6" d="M685.13,80.97h3.16c2.28,0,3.09,1.36,3.09,3.29v9.66h-1.2v-9.64c0-1.59-.5-2.26-2.01-2.26h-3.04v-1.05Z"/>
    <path class="st6" d="M697.94,80.97v12.95h-1.2v-12.95h1.2Z"/>
    <path class="st6" d="M709.04,92.88h1.49v1.05h-7.5v-1.05h4.82v-10.86h-4.82v-1.05h6.01v11.91Z"/>
    <path class="st6" d="M715.67,80.97v6.81h-1.2v-6.81h1.2Z"/>
    <path class="st6" d="M727.34,84.28c0-1.59-.5-2.26-2.01-2.26h-3v11.91h-1.2v-12.95h4.31c2.28,0,3.09,1.36,3.09,3.29v9.66h-1.2v-9.64Z"/>
  </g>
  <path class="st5" d="M515.43,36.49h4.07c2.59,0,7.52,2.9,9.32,4.76.14.15,1.24,1.46,1.09,1.59-2.75-.22-5.94.3-8.63,0-2.83-.31-3.89-1.34-7.24-.5-14.22,3.56-7.63,26.34,7,20.49,1.26-.5,1.25-.94,2.63-.94h6.85c-1.42,3.01-5.16,5.46-8.29,6.49-16.63,5.45-22.33-14.03-30.18-24.07-.96-1.41.32-3.59,1.88-3.83,3.1-.48,4.41,3.56,6.43,5.15-.33-.67-.02-1.12,0-1.69.15-4.63.03-9.73.39-14.29.16-2.02,1.22-4.36,3.66-4.06.99.12,2.1,1.76,2.1,2.68v9.62c.72-.74,1.31-1.72,1.87-2.59,1.8-2.81,6-10.75,8.27-12.37,1.36-.97,2.7-.98,3.96.17,2.63,2.39-1.16,6.5-2.47,8.66-.95,1.55-1.78,3.17-2.7,4.75Z"/>
  <path class="st6" d="M532.99,49.19l.26.33c.6,3.61.22,7.43-1.55,10.68l-12.19.09c-.16,2.08-2.11,2.04-3.77,1.79s-1.08-1.96-1.35-3.02c-.11-.42-.63-.8-.73-1.45-.18-1.16-.1-4.39.24-5.49.37-1.17,1.29-2.01,2.12-2.84v-.29c-3.36-1.35.59-4,2.09-1.79.99-.9,2.38-2.61,3.77-2.78,2.81-.34,6.25.26,9.13,0,.5-.04,1.25,1.82,1.09,1.98-.49-.05-.74-.34-1.28-.4-1.62-.19-6.94-.21-8.49.05-1.44.24-2.72,2.13-3.72,3.13h14.39ZM519.59,54.15c.47-.68-3.51-3.69-4.38-1.7-1.11,2.52,2.96,2.32,4.38,1.7ZM532.29,53.76h-11.11c.05,1.29.55,2.07,1.88,2.19s6.54.21,7.71-.05c1.01-.23,1.29-1.3,1.53-2.14ZM520.19,58.52c-.6-.59-1.18-1.95-2.08-2-.65-.03-1.53.41-2.28.22-.3.75.62,1.79,1.29,1.79h3.08ZM531.7,57.33h-9.62s-.22-.3-.3-.2c-.15.94.48,1.26,1.31,1.37,1.52.21,5.35.17,6.94.03.75-.07,1.54-.34,1.68-1.2Z"/>
  <line class="st20" x1="493.26" y1="74.3" x2="728.54" y2="74.3"/>
</svg>